<?xml version="1.0" encoding="utf-8"?>
<!-- Generator: Adobe Illustrator 16.0.0, SVG Export Plug-In . SVG Version: 6.00 Build 0)  -->
<!DOCTYPE svg PUBLIC "-//W3C//DTD SVG 1.1//EN" "http://www.w3.org/Graphics/SVG/1.1/DTD/svg11.dtd">
<svg version="1.1" id="Layer_1" xmlns="http://www.w3.org/2000/svg" xmlns:xlink="http://www.w3.org/1999/xlink" x="0px" y="0px"
	 width="959.617px" height="87.463px" viewBox="0 0 959.617 87.463" enable-background="new 0 0 959.617 87.463"
	 xml:space="preserve">
<g>
	<g>
		<path fill="#FFFFFF" d="M33.923,2.525l5.378,4.022c-0.28,0.374-0.982,0.795-1.917,0.982v33.767c0,0.093-1.403,1.59-5.145,1.59
			v-4.35H11.848v2.947c0,0.14-0.561,2.058-5.004,2.058V3.086l5.379,2.245h19.549L33.923,2.525z M32.239,6.313H11.848v14.873h20.392
			V6.313z M11.848,37.602h20.392v-15.48H11.848V37.602z"/>
		<path fill="#FFFFFF" d="M102.862,11.692c-0.374,0.608-0.935,0.842-2.291,0.842H84.436c3.976,8.278,11.739,14.919,19.129,18.053
			l-0.141,0.467c-2.058,0.375-3.741,1.964-4.536,4.443c-7.063-4.677-12.254-12.534-15.294-22.963h-0.093v19.923h1.964l2.666-3.882
			l4.91,3.975c-0.374,0.608-0.981,0.842-2.244,0.842h-7.296v8.979c0,0.093-0.655,1.543-5.145,1.543V33.393h-9.12l-0.233-0.936h9.354
			v-13.89c-4.21,7.202-10.663,13.235-19.175,17.397l-0.468-0.654c7.529-5.659,13.328-14.405,16.135-22.776h-15.34l-0.281-0.936
			h19.129V0l7.249,0.655c-0.094,0.795-0.515,1.169-2.104,1.356v9.587h10.803l3.04-4.162L102.862,11.692z"/>
		<path fill="#FFFFFF" d="M138.084,39.191c11.879-2.385,16.275-9.915,16.275-17.164c0-8.746-3.414-15.247-13.049-15.247
			c-1.216,0-2.993,0.234-4.209,0.561c1.637,0.795,3.134,2.619,3.134,5.565c0,8.979-6.08,22.636-13.142,22.636
			c-3.976,0-6.829-3.975-6.829-10.522c0-10.149,8.419-19.736,21.187-19.736c11.646,0,18.333,6.922,18.333,16.977
			c0,9.307-5.612,16.509-21.467,17.818L138.084,39.191z M135.745,7.623c-6.875,2.245-11.084,9.167-11.084,17.211
			c0,3.32,0.889,5.425,2.572,5.425c4.209,0,9.447-11.458,9.447-19.643C136.681,9.213,136.26,8.091,135.745,7.623z"/>
		<path fill="#FFFFFF" d="M192.058,4.303c0.421-1.029,1.918-1.871,3.508-1.871c2.525,0,6.454,1.684,6.454,3.227
			c0,0.468-0.28,0.749-0.654,1.263c-0.281,0.328-0.468,0.795-0.655,1.824c-0.28,1.45-0.748,3.788-1.122,5.285
			c2.899-0.234,6.454-0.468,8.652-0.748c0.935-0.094,1.216-0.375,1.684-0.842c0.561-0.515,1.075-1.029,1.496-1.029
			c1.122,0,4.771,2.947,4.771,3.835c0,0.562-0.515,0.889-1.263,1.216c-0.562,0.234-0.748,0.655-0.842,2.198
			c-0.562,8.886-2.245,22.262-8.699,22.262c-0.795,0-1.684-0.889-1.777-1.637c-0.093-0.749-0.327-1.497-1.169-2.385
			c-0.842-0.842-3.835-2.946-6.033-4.256l0.374-0.702c1.824,0.749,7.483,2.759,8.185,2.759c3.414,0,4.958-13.469,4.958-18.754
			c0-0.421-0.047-0.655-0.468-0.655c-0.141,0-7.016,0.562-10.195,0.936c-2.433,9.728-6.735,18.661-18.661,24.693l-0.607-0.655
			c9.025-6.968,13.235-16.275,14.638-23.478c-1.684,0.141-5.705,0.749-7.108,1.59c-0.515,0.327-0.936,0.468-1.403,0.468
			c-1.777,0-4.209-2.572-4.209-4.958c0-0.608,0.608-1.964,1.45-1.964c0.327,2.198,1.777,2.712,4.35,2.712
			c0.701,0,1.355-0.047,7.389-0.374c0.421-2.338,0.842-5.752,0.842-7.249c0-2.104-1.263-2.759-3.835-2.619L192.058,4.303z"/>
		<path fill="#FFFFFF" d="M242.432,11.505c0.562-0.889,1.918-1.684,3.134-1.684c2.245,0,6.221,2.151,6.221,3.601
			c0,0.561-0.328,0.795-0.655,1.169c-0.327,0.421-0.421,0.702-0.515,1.45c-1.263,10.616-4.35,18.848-13.422,25.161l-0.702-0.702
			c6.454-6.828,9.12-16.977,9.447-25.582c0-1.59-0.233-3.414-3.461-3.133L242.432,11.505z M279.332,16.836
			c-2.806,9.728-8.512,16.088-15.527,20.063c-0.889,0.515-1.543,1.029-2.011,1.637c-0.607,0.749-0.982,1.45-1.684,1.45
			c-1.216,0-4.022-3.04-4.022-4.677c0-0.608,0.562-1.31,0.796-1.871c0.514-1.73,0.514-10.897,0.514-15.2
			c0-11.411-0.327-12.44-1.169-13.001c-0.654-0.468-1.824-0.748-2.806-0.608l-0.047-0.047c0.187-0.935,1.59-1.871,3.04-1.871
			c2.479,0,6.36,1.497,6.36,3.508c0,0.701-0.374,1.122-0.748,1.73c-0.328,0.608-0.608,1.356-0.702,2.806
			c-0.187,3.742-0.327,10.196-0.327,16.088c0,1.917,0.047,3.835,0.047,5.519c0,0.281,0.094,0.421,0.327,0.421
			c1.076,0,12.113-5.612,17.07-16.322L279.332,16.836z"/>
		<path fill="#FFFFFF" d="M320.679,2.432c0-0.327,0.889-0.701,1.824-0.701c2.525,0,6.781,2.899,6.781,4.817
			c0,1.029-1.637,0.702-2.619,1.029c-1.917,0.562-4.771,1.263-7.155,1.777c0.889,0.608,1.73,1.263,1.73,1.824
			c0,0.328-0.234,0.702-0.421,0.936c-0.374,0.561-0.515,5.145-0.562,6.173c8.465-0.561,9.307-0.608,10.944-2.058
			c2.385,0.234,6.079,1.73,6.079,3.367c0,1.216-0.935,1.356-2.525,1.356c-1.122,0-3.601-0.234-5.284-0.328
			c-1.076-0.047-2.339-0.093-3.742-0.093c-1.776,0-3.741,0.046-5.658,0.187c-1.076,9.868-4.443,16.603-16.557,21.42l-0.561-0.702
			c8.418-5.145,11.879-11.879,12.58-20.344c-2.572,0.234-9.4,0.982-11.317,1.777c-0.982,0.374-1.45,0.935-2.151,0.935
			c-2.245,0-5.051-2.759-5.051-4.911c0-0.795,0.514-1.824,1.028-2.151l0.188,0.047c0.421,2.666,2.712,2.713,5.472,2.713
			c1.403,0,7.108-0.468,12.066-0.889c0.093-1.73,0.14-3.742,0.14-5.191c0-1.356,0-2.759-0.607-3.274
			c-4.911,0.889-10.897,1.637-16.042,1.824l-0.187-0.842c8.138-1.356,17.164-3.929,21.513-5.706
			c1.685-0.701,1.965-0.982,1.965-1.684c0-0.561-0.842-1.076-1.824-1.263L320.679,2.432z"/>
		<path fill="#FFFFFF" d="M365.301,13.516c0.233-1.263,1.496-2.151,2.712-2.151c2.76,0,5.332,0.842,5.332,1.777
			c0,0.281-0.374,1.543-0.374,1.824c0,0.374,0.327,2.666,0.936,5.378c3.554-0.842,7.903-1.917,9.914-2.526
			c0.655-0.14,0.982-0.421,1.45-0.888c0.468-0.515,0.701-0.795,1.216-0.795c1.029,0,4.35,2.713,4.35,3.742
			c0,0.327-0.562,0.561-1.263,0.795c-0.655,0.234-0.842,0.374-1.356,1.029c-1.449,1.777-3.929,4.864-7.576,7.436l-0.702-0.514
			c2.572-3.461,4.724-8.559,4.724-9.026c0-0.093-0.046-0.093-0.14-0.093c-0.327,0-6.875,1.824-10.103,2.853
			c1.123,4.911,2.666,10.57,3.602,13.376c0.421,1.169,1.169,2.385,1.169,2.993c0,2.292-0.561,3.554-2.291,3.554
			c-1.497,0-1.871-1.029-2.572-5.191c-0.328-1.871-1.544-8.184-2.9-13.796c-2.618,0.655-4.957,1.45-6.22,2.338
			c-0.701,0.514-1.029,1.029-1.777,1.029c-1.684-0.047-4.162-2.432-4.162-4.162c0-0.515,0.28-1.497,0.748-1.777l0.094,0.047
			c0.094,0.467,0.468,1.917,2.572,1.917c1.777,0,5.284-0.889,8.138-1.59c-0.515-2.011-1.029-3.975-1.497-5.238
			c-0.701-1.871-1.216-2.479-2.665-2.479c-0.421,0-0.843,0.047-1.264,0.234L365.301,13.516z"/>
		<path fill="#FFFFFF" d="M443.08,19.736c3.18,0,4.91-0.467,5.611-0.467c2.433,0.14,6.08,0.842,6.08,2.479
			c0,1.123-1.263,1.637-3.367,1.637c-0.795,0-2.198,0-3.273-0.046c-1.871,0-5.659-0.047-9.541-0.047
			c-4.489,0-11.131,0.187-13.797,0.421c-1.169,0.14-2.291,0.327-3.32,0.702c-0.701,0.28-1.263,0.654-2.058,0.654
			c-2.245,0-5.659-3.507-5.659-5.565c0-1.31,0.234-2.058,0.982-2.76l0.327-0.046c0.655,2.899,3.882,3.04,7.343,3.04H443.08z"/>
		<path fill="#FFFFFF" d="M504.491,14.17c0.562-0.795,1.824-1.309,2.899-1.309c3.227,0,6.033,2.899,6.033,4.583
			c0,1.917-1.871,2.151-4.069,2.806c-2.244,0.655-6.921,2.432-10.195,3.929c0.047,0.701,0.141,1.871,0.141,2.712
			c0,4.771-1.403,6.547-3.227,6.547c-1.31,0-2.012-0.982-2.012-2.479c0-0.187,0.047-0.374,0.047-0.561
			c0.188-1.45,0.421-3.508,0.374-4.396c-3.975,2.151-6.688,4.443-6.688,7.623c0,2.713,2.525,3.602,7.811,3.602
			c3.647,0,7.482-0.375,8.23-0.982c3.181,0.468,5.191,1.263,5.191,2.712c0,1.263-0.795,1.777-3.087,2.198
			c-1.87,0.374-6.594,0.468-9.166,0.468c-7.904,0-12.253-2.245-12.253-6.875c0-4.677,5.472-8.886,9.821-11.411
			c0-3.368-1.029-4.771-3.04-4.771c-3.555,0-8.045,4.443-11.88,10.242c-1.169,1.824-2.011,2.759-3.18,2.759
			s-2.198-0.936-2.198-2.853c0-1.497,1.263-2.479,2.713-3.648c3.835-3.04,7.296-8.605,8.512-12.44
			c-0.936,0.093-2.292,0.093-2.993,0.093c-5.285,0-6.08-3.788-6.08-5.332l0.374-0.187c0.982,1.637,2.432,2.572,5.098,2.619
			c1.076,0,3.414-0.187,4.677-0.468c0.515-1.543,0.749-2.946,0.749-3.975c0-1.263-1.17-1.871-2.433-1.871
			c-0.374,0-0.795,0.047-1.169,0.187l-0.094-0.046c0.094-1.076,1.777-2.432,3.648-2.432c2.993,0,5.519,1.263,5.519,2.712
			c0,0.982-0.749,1.45-1.076,2.245c-0.233,0.655-0.607,1.684-0.936,2.479c0.328-0.047,7.437-1.31,8.045-3.601
			c2.806,0.094,5.658,0.468,5.658,2.385c0,1.169-1.776,1.964-3.554,2.432c-2.525,0.748-7.764,1.871-11.599,2.385
			c-1.169,2.9-2.807,5.94-4.022,7.624l0.141,0.093c2.946-2.619,5.425-3.507,7.296-3.507c2.666,0,4.91,1.31,5.799,4.724
			c4.069-2.011,8.979-4.209,8.979-5.472c0-0.795-0.842-1.216-1.777-1.216c-0.28,0-0.514,0.047-0.795,0.093L504.491,14.17z"/>
		<path fill="#FFFFFF" d="M566.416,29.838c0,0.515-2.151,1.497-4.069,1.497h-0.935v-3.928h-7.063v3.46
			c0,0.094-0.795,1.497-4.91,1.497v-18.52h-6.875V38.35h22.308l2.993-4.069l5.473,4.163c-0.328,0.608-0.982,0.842-2.292,0.842
			h-28.481v2.853c0,0.093-0.796,1.777-4.958,1.777V13.843h-6.875l-0.233-0.936h7.108V1.216l6.875,0.608
			c-0.094,0.655-0.468,1.029-1.917,1.216v9.868h6.875V0.234l6.781,0.608c-0.094,0.655-0.468,1.029-1.871,1.169v10.897h7.063V0.982
			l6.874,0.562c-0.093,0.701-0.467,1.029-1.87,1.216v10.148h0.982l2.665-3.694l5.005,3.788c-0.375,0.608-0.982,0.842-2.292,0.842
			h-6.36V29.838z M554.35,26.471h7.063V13.843h-7.063V26.471z"/>
		<path fill="#FFFFFF" d="M622.963,19.643h-7.015c3.647,4.443,11.037,6.968,17.632,8.044l-0.047,0.562
			c-1.918,0.467-3.181,2.058-3.695,4.443c-3.414-1.356-6.5-3.04-9.119-5.285v15.153c0,0.046-0.889,1.356-4.911,1.356V24.366
			l2.151,0.187c-1.216-1.45-2.245-3.087-3.04-4.911h-4.91c-1.263,1.917-2.807,3.601-4.677,5.145l2.806,0.234
			c-0.094,0.608-0.421,0.842-1.684,1.029v4.116c-0.094,5.472-2.525,11.131-15.854,13.75l-0.327-0.514
			c9.587-3.321,11.271-8.418,11.271-13.282v-2.712c-3.414,2.058-7.482,3.647-12.019,4.817l-0.375-0.795
			c6.501-2.713,11.646-6.922,14.592-11.786h-3.647v0.468c0,0.14-0.655,1.824-4.911,1.824V0.701l5.285,2.151h22.028l1.964-2.619
			l5.425,3.835c-0.327,0.374-0.981,0.795-1.917,0.982v15.106c0,0.094-1.45,1.263-5.005,1.263V19.643z M608.886,3.788h-8.792v6.875
			h8.792V3.788z M600.094,18.754h8.792v-7.156h-8.792V18.754z M622.963,3.788h-9.213v6.875h9.213V3.788z M613.75,18.754h9.213
			v-7.156h-9.213V18.754z"/>
		<path fill="#FFFFFF" d="M653.367,17.912c0.047,1.403,0.654,2.479,1.823,2.479c1.217,0,2.012-0.888,2.807-1.777
			c1.824-2.011,4.256-4.724,5.612-6.033c1.637-1.684,3.788-2.619,5.705-2.619c3.274,0,5.332,1.543,7.437,4.022
			c3.134,3.789,9.026,10.242,12.861,13.516c2.853,2.385,5.472,3.461,5.472,6.735c0,1.824-0.936,2.525-2.525,2.525
			c-1.356,0-3.087-1.31-4.583-2.9c-4.35-4.583-10.195-12.674-12.16-15.574c-2.432-3.788-3.976-5.893-6.36-5.893
			c-2.432,0-3.929,1.777-9.026,10.382c-0.889,1.543-0.982,3.742-3.134,3.742c-2.432,0-5.611-3.18-5.611-5.706
			c0-1.403,0.795-2.619,1.543-2.946L653.367,17.912z"/>
		<path fill="#FFFFFF" d="M722.636,31.194c3.507,0,6.313,2.806,6.313,6.267c0,3.46-2.807,6.313-6.313,6.313
			c-3.461,0-6.268-2.853-6.268-6.313C716.368,33.907,719.269,31.194,722.636,31.194z M727.499,37.461
			c0-2.666-2.198-4.864-4.863-4.864c-2.666,0-4.864,2.198-4.864,4.864c0,2.666,2.198,4.864,4.864,4.864
			C725.395,42.325,727.499,40.033,727.499,37.461z"/>
	</g>
	<g>
		<path fill="#FFFFFF" d="M236.772,74.218c0,3.286-0.444,9.173-6.845,9.173c-4.176,0-5.545-1.712-5.545-3.012
			c0-0.822,0.582-1.438,1.507-1.438c0.924,0,1.54,0.41,2.121,1.539c0.514,0.925,1.062,1.369,1.951,1.369
			c2.156,0,2.636-2.293,2.636-6.742V57.345c0-2.601-0.206-2.875-2.978-2.875v-1.403h9.856v1.403c-2.464,0-2.704,0.308-2.704,2.841
			V74.218z"/>
		<path fill="#FFFFFF" d="M261.209,65.936c0-2.636-1.026-3.697-2.978-3.697c-1.779,0-2.807,1.062-3.423,2.705
			c-0.273,0.719-0.719,1.163-1.779,1.163c-1.062,0-1.472-0.65-1.472-1.403c0-1.711,2.156-3.834,6.947-3.834
			c3.525,0,6.64,0.925,6.64,5.785v8.248c0,1.779,0.377,2.498,1.096,2.498c0.376,0,0.719-0.103,0.992-0.273l0.274,1.164
			c-0.787,0.308-1.644,0.514-3.012,0.514c-1.746,0-2.602-0.617-3.047-1.918h-0.137c-1.197,1.199-2.704,2.156-5.407,2.156
			c-2.499,0-5.168-1.438-5.168-4.551c0-1.78,0.719-3.184,2.464-4.279c1.335-0.855,3.217-1.574,5.682-2.121l2.327-0.582V65.936z
			 M261.209,68.844c-3.08,0.925-6.366,2.191-6.366,5.066c0,2.703,1.746,3.183,2.909,3.183c1.574,0,2.67-0.89,3.457-1.712V68.844z"/>
		<path fill="#FFFFFF" d="M283.832,77.161v6.537c0,2.293,0.205,2.567,2.088,2.567v1.197h-8.112v-1.197
			c1.985,0,2.122-0.309,2.122-2.567V66.209c0-2.293-0.103-2.602-2.122-2.602v-1.095c1.644-0.206,3.662-0.787,5.34-1.644l0.444,0.274
			l0.138,2.088h0.068c1.368-1.574,2.978-2.362,5.134-2.362c4.004,0,6.981,3.184,6.981,8.899c0,7.872-4.449,9.241-7.29,9.241
			c-2.122,0-3.594-0.719-4.723-1.849H283.832z M283.832,75.143c1.026,1.334,2.361,2.225,3.867,2.225
			c4.004,0,4.038-5.785,4.038-7.701c0-1.506-0.068-7.051-3.97-7.051c-1.677,0-2.909,1.164-3.936,2.43V75.143z"/>
		<path fill="#FFFFFF" d="M317.782,65.936c0-2.636-1.026-3.697-2.978-3.697c-1.779,0-2.807,1.062-3.423,2.705
			c-0.273,0.719-0.719,1.163-1.779,1.163c-1.062,0-1.472-0.65-1.472-1.403c0-1.711,2.156-3.834,6.947-3.834
			c3.525,0,6.64,0.925,6.64,5.785v8.248c0,1.779,0.377,2.498,1.096,2.498c0.376,0,0.719-0.103,0.992-0.273l0.274,1.164
			c-0.787,0.308-1.644,0.514-3.012,0.514c-1.746,0-2.602-0.617-3.047-1.918h-0.137c-1.197,1.199-2.704,2.156-5.407,2.156
			c-2.499,0-5.168-1.438-5.168-4.551c0-1.78,0.719-3.184,2.464-4.279c1.335-0.855,3.217-1.574,5.682-2.121l2.327-0.582V65.936z
			 M317.782,68.844c-3.08,0.925-6.366,2.191-6.366,5.066c0,2.703,1.746,3.183,2.909,3.183c1.574,0,2.67-0.89,3.457-1.712V68.844z"/>
		<path fill="#FFFFFF" d="M340.474,63.916c1.54-1.883,3.456-3.047,5.716-3.047c3.799,0,5.339,2.055,5.339,5.648V74.8
			c0,2.19,0.171,2.601,1.813,2.601v1.198h-7.495V77.4c1.643,0,1.78-0.239,1.78-2.703v-8.078c0-2.771-0.822-3.97-2.807-3.97
			c-1.369,0-2.943,1.267-4.347,3.218v8.863c0,2.431,0.068,2.67,1.711,2.67v1.198h-7.804V77.4c1.985,0,2.19-0.273,2.19-2.703v-8.488
			c0-2.327-0.239-2.635-2.19-2.602v-1.095c1.814-0.239,3.696-0.753,5.34-1.644l0.547,0.274l0.138,2.772H340.474z"/>
		<path fill="#FFFFFF" d="M379.559,74.834c-1.54,2.84-3.937,4.209-6.982,4.209c-4.21,0-8.351-2.088-8.351-9.48
			c0-4.414,2.43-8.693,7.94-8.693c6.297,0,7.427,5.717,7.427,8.899h-11.227c0,2.259,0.309,4.142,1.232,5.612
			c0.855,1.336,2.19,2.088,3.662,2.088c2.396,0,4.142-1.438,5.031-3.251L379.559,74.834z M375.588,68.365
			c0-1.951-0.308-6.127-3.456-6.127c-1.609,0-3.628,1.301-3.766,6.127H375.588z"/>
		<path fill="#FFFFFF" d="M391.88,73.465c0.855,3.217,2.396,4.176,4.654,4.176c2.807,0,3.628-1.814,3.628-2.979
			c0-0.719-0.205-1.266-0.685-1.779c-0.615-0.685-1.745-1.129-3.49-2.121c-1.472-0.891-2.807-1.507-3.731-2.533
			c-0.649-0.787-1.129-1.746-1.129-2.943c0-2.225,1.917-4.416,6.674-4.416c2.054,0,3.594,0.343,4.792,0.788
			c0.137,1.026,0.273,2.155,0.65,3.901l-1.267,0.24c-0.582-2.738-1.643-3.561-3.799-3.561c-1.301,0-3.252,0.617-3.252,2.26
			c0,0.821,0.548,1.574,1.438,2.189c1.096,0.617,2.738,1.268,3.594,1.849c2.772,1.438,4.278,3.183,4.278,5.237
			c0,2.908-2.602,5.27-7.256,5.27c-2.464,0-4.176-0.444-5.613-1.061c-0.205-1.506-0.444-2.771-0.753-4.244L391.88,73.465z"/>
		<path fill="#FFFFFF" d="M430.794,74.834c-1.54,2.84-3.937,4.209-6.982,4.209c-4.21,0-8.351-2.088-8.351-9.48
			c0-4.414,2.43-8.693,7.94-8.693c6.297,0,7.427,5.717,7.427,8.899h-11.227c0,2.259,0.309,4.142,1.232,5.612
			c0.855,1.336,2.19,2.088,3.662,2.088c2.396,0,4.142-1.438,5.031-3.251L430.794,74.834z M426.823,68.365
			c0-1.951-0.308-6.127-3.456-6.127c-1.609,0-3.628,1.301-3.766,6.127H426.823z"/>
		<path fill="#FFFFFF" d="M474.978,75.176c-1.369,2.156-3.32,3.867-6.503,3.867c-7.29,0-8.077-6.502-8.077-9.206
			c0-5.339,3.148-8.968,8.351-8.968c3.594,0,5.818,1.951,5.818,3.697c0,0.924-0.479,1.574-1.301,1.574
			c-1.095,0-1.574-1.027-2.019-2.02c-0.445-1.129-1.164-1.883-2.431-1.883c-2.156,0-4.278,2.225-4.278,7.53
			c0,6.708,3.115,7.632,4.689,7.632c2.464,0,3.799-1.779,4.518-2.908L474.978,75.176z"/>
		<path fill="#FFFFFF" d="M502.254,74.766c0,2.396,0.137,2.67,2.122,2.67v1.095c-1.745,0-3.354,0-5.407,0.513l-0.377-0.205
			l-0.171-2.361h-0.103c-1.164,1.369-2.841,2.566-5.442,2.566c-3.936,0-5.441-2.293-5.441-6.229v-6.708
			c0-2.259-0.137-2.499-1.883-2.499v-1.095c1.608-0.239,3.56-0.787,5.271-1.644l0.548,0.24v11.26c0,1.404,0,4.724,2.978,4.724
			c1.506,0,2.841-0.925,4.005-2.499v-8.521c0-2.26-0.137-2.465-1.849-2.465v-1.095c1.608-0.239,3.56-0.787,5.236-1.644l0.514,0.24
			V74.766z"/>
		<path fill="#FFFFFF" d="M515.122,77.4c2.19,0,2.362-0.376,2.362-2.703V57.174c0-2.156-0.172-2.465-2.362-2.465v-1.095
			c1.951-0.239,3.834-0.719,5.784-1.644l0.479,0.274V74.73c0,2.294,0.137,2.67,2.19,2.67v1.198h-8.454V77.4z"/>
		<path fill="#FFFFFF" d="M534.083,62.752v-1.129c2.704-0.24,4.005-1.814,4.963-5.511h1.198v5.202h4.346v1.438h-4.346v11.637
			c0,2.088,0.649,2.943,1.984,2.943c0.924,0,1.678-0.308,2.499-0.924l0.719,1.129c-1.13,0.959-2.499,1.506-4.449,1.506
			c-2.396,0-4.655-0.957-4.655-4.654V62.752H534.083z"/>
		<path fill="#FFFFFF" d="M572.142,74.766c0,2.396,0.137,2.67,2.122,2.67v1.095c-1.745,0-3.354,0-5.407,0.513l-0.377-0.205
			l-0.171-2.361h-0.103c-1.164,1.369-2.841,2.566-5.442,2.566c-3.936,0-5.441-2.293-5.441-6.229v-6.708
			c0-2.259-0.137-2.499-1.883-2.499v-1.095c1.608-0.239,3.56-0.787,5.271-1.644l0.548,0.24v11.26c0,1.404,0,4.724,2.978,4.724
			c1.506,0,2.841-0.925,4.005-2.499v-8.521c0-2.26-0.137-2.465-1.849-2.465v-1.095c1.608-0.239,3.56-0.787,5.236-1.644l0.514,0.24
			V74.766z"/>
		<path fill="#FFFFFF" d="M591.034,63.744h0.068c1.506-1.984,2.737-2.875,4.483-2.875c1.779,0,3.08,1.336,3.08,2.842
			c0,1.026-0.514,1.711-1.403,1.711c-0.719,0-1.267-0.41-1.608-1.335c-0.343-0.992-0.616-1.335-1.232-1.335
			c-1.026,0-2.054,1.13-3.319,2.943v9.035c0,2.294,0.239,2.67,2.532,2.67v1.198h-8.591V77.4c1.985,0,2.156-0.239,2.156-2.67v-8.658
			c0-2.225-0.205-2.465-2.156-2.465v-1.095c1.814-0.206,3.662-0.719,5.408-1.644l0.444,0.274L591.034,63.744z"/>
		<path fill="#FFFFFF" d="M624.643,74.834c-1.54,2.84-3.937,4.209-6.982,4.209c-4.21,0-8.351-2.088-8.351-9.48
			c0-4.414,2.43-8.693,7.94-8.693c6.297,0,7.427,5.717,7.427,8.899H613.45c0,2.259,0.309,4.142,1.232,5.612
			c0.855,1.336,2.19,2.088,3.662,2.088c2.396,0,4.142-1.438,5.031-3.251L624.643,74.834z M620.672,68.365
			c0-1.951-0.308-6.127-3.456-6.127c-1.609,0-3.628,1.301-3.766,6.127H620.672z"/>
		<path fill="#FFFFFF" d="M653.733,62.752v-1.129c2.704-0.24,4.005-1.814,4.963-5.511h1.198v5.202h4.346v1.438h-4.346v11.637
			c0,2.088,0.649,2.943,1.984,2.943c0.924,0,1.678-0.308,2.499-0.924l0.719,1.129c-1.13,0.959-2.499,1.506-4.449,1.506
			c-2.396,0-4.655-0.957-4.655-4.654V62.752H653.733z"/>
		<path fill="#FFFFFF" d="M675.535,69.837c0-5.168,2.464-8.968,8.453-8.968c6.4,0,8.454,4.279,8.454,8.968
			c0,3.456-0.855,5.716-2.327,7.118c-1.54,1.438-3.594,2.088-6.127,2.088C678.957,79.043,675.535,76.511,675.535,69.837z
			 M679.642,69.939c0,3.457,0.616,7.701,4.313,7.701c3.423,0,4.313-3.56,4.313-7.701c0-3.867-0.753-7.701-4.313-7.701
			C680.224,62.238,679.642,66.449,679.642,69.939z"/>
		<path fill="#FFFFFF" d="M721.566,62.752v-1.129c2.704-0.24,4.005-1.814,4.963-5.511h1.198v5.202h4.346v1.438h-4.346v11.637
			c0,2.088,0.649,2.943,1.984,2.943c0.925,0,1.678-0.308,2.499-0.924l0.719,1.129c-1.13,0.959-2.499,1.506-4.449,1.506
			c-2.396,0-4.655-0.957-4.655-4.654V62.752H721.566z"/>
		<path fill="#FFFFFF" d="M743.094,77.4c1.985,0,2.19-0.308,2.19-2.703v-17.49c0-2.225-0.239-2.498-2.156-2.498v-1.095
			c1.814-0.274,3.731-0.753,5.579-1.644l0.479,0.274v11.567h0.068c1.506-1.744,3.525-2.943,5.853-2.943
			c5.134,0,5.134,4.244,5.134,6.195v7.666c0,2.294,0.171,2.67,1.882,2.67v1.198h-7.632V77.4c1.677,0,1.849-0.239,1.849-2.703v-7.496
			c0-2.258-0.138-4.552-2.704-4.552c-1.506,0-3.012,1.335-4.449,3.183v8.898c0,2.431,0.171,2.67,1.745,2.67v1.198h-7.838V77.4z"/>
		<path fill="#FFFFFF" d="M788.306,74.834c-1.54,2.84-3.937,4.209-6.982,4.209c-4.21,0-8.351-2.088-8.351-9.48
			c0-4.414,2.43-8.693,7.94-8.693c6.297,0,7.427,5.717,7.427,8.899h-11.227c0,2.259,0.309,4.142,1.232,5.612
			c0.855,1.336,2.19,2.088,3.662,2.088c2.396,0,4.142-1.438,5.031-3.251L788.306,74.834z M784.335,68.365
			c0-1.951-0.308-6.127-3.456-6.127c-1.609,0-3.628,1.301-3.766,6.127H784.335z"/>
		<path fill="#FFFFFF" d="M842.928,62.513c-0.924,0-1.232,0.274-1.711,1.745l-4.758,14.82h-2.293l-3.867-12.697h-0.068
			l-4.005,12.697h-2.361l-4.929-14.135c-0.787-2.294-1.026-2.431-2.156-2.431v-1.198h7.085v1.198c-1.096,0-1.506,0.171-1.506,0.787
			c0,0.308,0.103,0.719,0.273,1.267l3.286,9.959h0.103l3.319-10.746l-0.239-0.685c-0.205-0.514-0.514-0.582-1.677-0.582v-1.198
			h6.981v1.198c-1.095,0-1.54,0.137-1.54,0.753c0,0.273,0.068,0.616,0.206,1.096l3.114,10.199h0.103l3.285-10.645
			c0.069-0.273,0.138-0.479,0.138-0.65c0-0.547-0.411-0.753-1.506-0.753v-1.198h4.723V62.513z"/>
		<path fill="#FFFFFF" d="M851.45,69.837c0-5.168,2.464-8.968,8.453-8.968c6.4,0,8.454,4.279,8.454,8.968
			c0,3.456-0.855,5.716-2.327,7.118c-1.54,1.438-3.594,2.088-6.127,2.088C854.872,79.043,851.45,76.511,851.45,69.837z
			 M855.557,69.939c0,3.457,0.616,7.701,4.313,7.701c3.423,0,4.313-3.56,4.313-7.701c0-3.867-0.753-7.701-4.313-7.701
			C856.139,62.238,855.557,66.449,855.557,69.939z"/>
		<path fill="#FFFFFF" d="M884.203,63.744h0.068c1.506-1.984,2.737-2.875,4.483-2.875c1.779,0,3.08,1.336,3.08,2.842
			c0,1.026-0.514,1.711-1.403,1.711c-0.719,0-1.267-0.41-1.608-1.335c-0.343-0.992-0.616-1.335-1.232-1.335
			c-1.026,0-2.054,1.13-3.319,2.943v9.035c0,2.294,0.239,2.67,2.532,2.67v1.198h-8.591V77.4c1.985,0,2.156-0.239,2.156-2.67v-8.658
			c0-2.225-0.205-2.465-2.156-2.465v-1.095c1.814-0.206,3.662-0.719,5.408-1.644l0.444,0.274L884.203,63.744z"/>
		<path fill="#FFFFFF" d="M902.17,77.4c2.19,0,2.362-0.376,2.362-2.703V57.174c0-2.156-0.172-2.465-2.362-2.465v-1.095
			c1.951-0.239,3.834-0.719,5.784-1.644l0.479,0.274V74.73c0,2.294,0.137,2.67,2.19,2.67v1.198h-8.454V77.4z"/>
		<path fill="#FFFFFF" d="M933.623,62.615v-5.373c0-2.156-0.137-2.533-2.19-2.533v-1.095c2.054-0.239,3.867-0.719,5.613-1.644
			l0.479,0.24v22.932c0,2.121,0.239,2.293,1.882,2.326v1.027c-1.301,0-3.594,0.068-5.236,0.547l-0.308-0.238l-0.138-1.883h-0.068
			c-0.787,0.958-2.361,2.088-4.723,2.088c-3.833,0-7.29-2.67-7.29-9.31c0-4.587,2.259-8.831,7.7-8.831
			c2.02,0,3.389,0.891,4.21,1.746H933.623z M933.623,64.737c-0.787-1.198-2.02-2.293-3.525-2.293c-4.072,0-4.313,5.065-4.313,7.495
			c0,4.758,1.78,7.461,4.176,7.461c1.643,0,2.841-1.197,3.662-2.327V64.737z"/>
		<path fill="#FFFFFF" d="M955.185,76.75c0,1.198-0.924,2.26-2.19,2.26s-2.19-1.062-2.19-2.26c0-1.231,0.924-2.258,2.19-2.258
			C954.329,74.492,955.185,75.587,955.185,76.75z"/>
	</g>
	
		<line fill="none" stroke="#FFFFFF" stroke-linecap="round" stroke-linejoin="round" stroke-miterlimit="10" x1="0" y1="78.599" x2="952.813" y2="78.599"/>
</g>
</svg>
