<?xml version="1.0" encoding="utf-8"?>
<!-- Generator: Adobe Illustrator 25.0.0, SVG Export Plug-In . SVG Version: 6.00 Build 0)  -->
<svg version="1.1" id="Layer_1" xmlns="http://www.w3.org/2000/svg" xmlns:xlink="http://www.w3.org/1999/xlink" x="0px" y="0px"
	 width="281.75px" height="138.56px" viewBox="0 0 281.75 138.56" style="enable-background:new 0 0 281.75 138.56;"
	 xml:space="preserve">
<style type="text/css">
	.st0{fill:#303030;}
	.st1{fill:#FFFFFF;}
	.st2{fill:#616262;}
	.st3{fill:#676868;}
	.st4{fill:#676868;stroke:#676868;stroke-miterlimit:10;}
	.st5{font-family:'KozGoPr6N-Regular-83pv-RKSJ-H';}
	.st6{font-size:15px;}
	.st7{font-family:'RyuminPr5-Regular-83pv-RKSJ-H';}
	.st8{font-size:17.7423px;}
</style>
<g>
	<g>
		<rect x="-350.96" y="-115.78" class="st0" width="136.44" height="29.87"/>
		<g>
			<g>
				<path class="st1" d="M-313.78-104.85h-3.09c0.98,0.62,1.46,0.92,1.46,1.58c0,0.37-0.23,0.78-0.67,0.78
					c-0.5,0-0.53-0.27-0.66-1.05c-0.12-0.78-0.32-1.17-0.39-1.31h-0.78c-0.82,1.15-1.6,2.09-3.12,3.07l-0.07-0.09
					c1.1-1.28,2.64-3.87,3.09-5.09c0.05-0.14,0.12-0.44,0.11-0.96l1.63,0.85c0.12,0.07,0.16,0.14,0.16,0.23
					c0,0.18-0.27,0.27-0.71,0.41c-0.23,0.34-0.69,1.01-0.78,1.15h1.99l0.53-0.66c0.09-0.11,0.2-0.23,0.27-0.23
					c0.09,0,0.19,0.09,0.34,0.2l0.8,0.66c0.09,0.07,0.18,0.18,0.18,0.27C-313.51-104.88-313.67-104.85-313.78-104.85z
					 M-306.66-96.86c-0.5,2.32-0.75,3.57-3.21,3.85c-0.04-0.67-0.64-1.37-1.35-1.88l0.02-0.11c0.71,0.14,1.51,0.3,2,0.3
					c0.55,0,1.05-0.16,1.33-2.59h-5.16c0.02,0.62,0.05,3.66,0.07,4.35c0,0.09,0.04,0.6,0.04,0.73c0,0.51-0.46,0.75-0.87,0.75
					c-0.23,0-0.48-0.07-0.48-0.53c0-0.87,0.09-3.82,0.11-4.74c-1.76,2.11-4.03,3.73-6.64,4.63l-0.04-0.14
					c1.19-0.64,3.8-2.73,5.63-5.04h-3.51c-0.21,0.82-0.3,1.14-0.91,1.14c-0.41,0-0.62-0.14-0.62-0.43c0-0.05,0.2-0.6,0.32-0.92
					c0.66-1.85,0.69-2.34,0.75-3.35l1.44,0.82h3.62c0-0.16-0.02-1.47-0.02-1.76h-2.68c-0.14,0-1.26,0-2.09,0.18l-0.36-0.71
					c0.87,0.07,1.86,0.11,2.73,0.11h7.19l0.48-0.46c0.05-0.05,0.12-0.11,0.2-0.11c0.09,0,0.18,0.05,0.25,0.11l0.83,0.64
					c0.05,0.05,0.14,0.11,0.14,0.21c0,0.16-0.2,0.3-0.57,0.55c0,0.27,0.07,1.49,0.07,1.67c0,0.6-0.71,0.67-0.83,0.67
					c-0.46,0-0.44-0.39-0.43-0.67h-3.82v1.9h5.04l0.62-0.64c0.07-0.07,0.16-0.18,0.23-0.18s0.2,0.11,0.27,0.18l0.82,0.75
					c0.07,0.05,0.12,0.14,0.12,0.21C-305.93-97.16-306.22-97.07-306.66-96.86z M-314.13-99.61h-3.97c-0.18,0.55-0.2,0.69-0.5,1.9
					h4.47V-99.61z M-305.99-104.67h-5.16c1.33,0.51,1.85,0.73,1.85,1.47c0,0.48-0.37,0.66-0.64,0.66c-0.44,0-0.51-0.27-0.8-1.05
					c-0.11-0.32-0.41-0.78-0.69-1.08h-0.67c-0.57,0.8-1.24,1.6-2.08,2.2l-0.09-0.07c1.12-1.88,2.15-3.76,2.09-5.31l1.72,0.78
					c0.11,0.05,0.16,0.12,0.16,0.21c0,0.18-0.25,0.3-0.76,0.46c-0.18,0.34-0.34,0.64-0.76,1.29h3.74l0.58-0.83
					c0.07-0.11,0.16-0.21,0.27-0.21c0.12,0,0.25,0.11,0.34,0.18l0.99,0.83c0.09,0.07,0.18,0.16,0.18,0.27
					C-305.72-104.71-305.86-104.67-305.99-104.67z M-309.2-101.79h-3.83v1.76h3.83V-101.79z"/>
				<path class="st1" d="M-297.69-98.96c0.82,0.69,1.21,1.58,1.21,2.63c0,2.18-1.79,3.74-4.13,3.74c-1.92,0-3.53-1.08-3.53-2.5
					c0-0.78,0.51-1.14,1.01-1.14c0.6,0,0.87,0.51,0.87,0.89c0,0.27-0.05,0.43-0.11,0.57c-0.04,0.11-0.05,0.23-0.05,0.41
					c0,0.67,0.76,1.17,1.6,1.17c1.37,0,2.75-1.35,2.75-3.14c0-1.83-1.35-3.25-2.77-3.25c-0.11,0-0.6,0.07-0.71,0.07
					c-0.27,0-0.39-0.16-0.39-0.37c0-0.23,0.18-0.41,0.41-0.41c0.11,0,0.64,0.11,0.76,0.11c1.49,0,2.43-1.33,2.43-2.77
					c0-1.38-0.83-2.66-2.24-2.66c-0.94,0-1.44,0.67-1.44,1.19c0,0.09,0.04,0.18,0.05,0.27c0.04,0.12,0.05,0.3,0.05,0.43
					c0,0.55-0.41,0.98-0.91,0.98c-0.59,0-0.89-0.51-0.89-0.98c0-0.98,1.14-2.48,3.41-2.48c2.18,0,3.55,1.42,3.55,2.98
					c0,0.62-0.23,1.22-0.66,1.81c-0.73,0.96-1.53,1.26-2.25,1.51C-298.84-99.67-298.31-99.49-297.69-98.96z"/>
				<path class="st1" d="M-280.44-104.83c-0.02,1.12,0.02,8.36,0.04,9.07c0.04,1.03,0.07,1.88,0.09,2.17c0,0.05,0.02,0.28,0.02,0.32
					c0,0.48-0.44,0.8-0.94,0.8c-0.51,0-0.51-0.21-0.5-1.24h-10.79c0,0.69,0,0.78-0.07,0.91c-0.18,0.3-0.6,0.48-0.91,0.48
					c-0.36,0-0.5-0.23-0.5-0.55c0-0.23,0.11-1.28,0.12-1.49c0.11-2.02,0.18-5.64,0.18-7.6c0-1.33,0-3.5-0.14-4.72l1.63,0.87h10.28
					l0.59-0.55c0.14-0.14,0.28-0.2,0.35-0.2s0.16,0.05,0.3,0.16l0.67,0.55c0.2,0.16,0.27,0.23,0.27,0.35
					C-279.75-105.33-280.15-105.04-280.44-104.83z M-281.73-105.4h-3.37c0,0.91-0.02,5.36-0.02,6.37c0,0.32,0,0.91,0.05,0.99
					c0.09,0.12,0.36,0.14,0.69,0.14c0.66,0,0.98,0,1.24-1.69l0.11,0.02c0.18,0.8,0.27,1.24,0.51,1.38c0.41,0.25,0.46,0.28,0.46,0.39
					c0,0.25-0.25,0.57-0.5,0.76c-0.34,0.28-0.64,0.37-1.7,0.37c-1.44,0-2.06-0.11-2.06-1.3c0-1.06,0.04-6.26,0.04-7.45h-2.01
					c0,4.1-0.12,7.92-3.62,9.69l-0.05-0.09c2.4-2.41,2.4-4.74,2.43-9.6h-3v11.25h10.79V-105.4z"/>
				<path class="st1" d="M-261.61-97.45h-7.29c0,0.78,0.07,4.22,0.07,4.92c0,0.83-0.75,0.94-0.98,0.94c-0.51,0-0.55-0.28-0.55-0.59
					c0-0.48,0.07-1.28,0.09-1.76l0.07-3.51h-4.81c-0.32,0-1.24,0-2.09,0.16l-0.35-0.71c1.1,0.09,2.2,0.12,2.73,0.12h4.52
					c0.02-0.25,0.02-0.51,0.02-0.85v-2.93h-3.3c-0.32,0-1.22,0-2.09,0.16l-0.35-0.71c1.1,0.09,2.2,0.12,2.73,0.12h3.02
					c0.02-4.03-0.05-4.61-0.37-5.73l1.88,0.43c0.28,0.07,0.34,0.14,0.34,0.28c0,0.21-0.16,0.3-0.58,0.58c0,0.69-0.04,3.8-0.04,4.44
					h3.51l0.71-0.98c0.09-0.12,0.18-0.23,0.28-0.23c0.09,0,0.2,0.09,0.34,0.21l1.1,0.96c0.09,0.09,0.18,0.16,0.18,0.27
					c0,0.16-0.14,0.19-0.27,0.19h-5.84c0,1.26,0.02,2.79,0.02,3.78h4.86l0.82-1.03c0.11-0.12,0.2-0.23,0.28-0.23
					c0.11,0,0.21,0.09,0.34,0.21l1.1,1.01c0.09,0.09,0.18,0.16,0.18,0.27C-261.35-97.46-261.51-97.45-261.61-97.45z M-273.01-102.79
					c-0.58,0-0.69-0.43-0.94-1.51c-0.2-0.8-0.6-1.53-1.14-2.17l0.04-0.09c1.28,0.44,2.82,1.74,2.82,2.95
					C-272.23-102.88-272.74-102.79-273.01-102.79z M-264.83-105.34c-1.08,1.22-1.26,1.4-2.75,2.8l-0.11-0.12
					c0.14-0.21,1.56-2.68,1.67-4.28l1.72,0.87c0.11,0.05,0.25,0.14,0.25,0.28C-264.05-105.58-264.29-105.52-264.83-105.34z"/>
				<path class="st1" d="M-256.29-95.05c-1.81,2.09-2.66,2.8-3.82,3.46l-0.07-0.09c0.41-0.5,1.77-2.17,2.59-4.01
					c0.11-0.25,0.11-0.32,0.18-0.94l1.69,1.03c0.07,0.04,0.12,0.11,0.12,0.2C-255.6-95.14-255.98-95.09-256.29-95.05z
					 M-250.99-104.53h-2.08c0,0.82,0.02,5.11,0.04,7.08h0.43l0.44-0.53c0.11-0.12,0.2-0.23,0.28-0.23c0.12,0,0.2,0.09,0.32,0.2
					l0.59,0.53c0.09,0.09,0.18,0.16,0.18,0.27c0,0.16-0.14,0.2-0.27,0.2h-6.46c-0.16,0-1.26,0-2.08,0.16l-0.35-0.71
					c0.43,0.04,1.03,0.09,2.18,0.11c0.02-3.74,0.02-4.17,0-7.04c-0.83,0.04-1.12,0.09-1.42,0.14l-0.35-0.69
					c0.66,0.05,0.71,0.05,1.76,0.09c-0.04-1.81-0.12-2.17-0.36-2.8l1.92,0.46c0.09,0.02,0.18,0.14,0.18,0.23
					c0,0.12-0.09,0.27-0.53,0.55c0,0.16-0.04,1.31-0.04,1.58h2.41c-0.04-1.86-0.07-1.99-0.28-2.86l1.76,0.48
					c0.12,0.04,0.21,0.12,0.21,0.21c0,0.16-0.09,0.25-0.5,0.55c-0.04,0.44-0.05,0.85-0.05,1.61h0.58l0.43-0.58
					c0.07-0.11,0.18-0.21,0.28-0.21s0.28,0.16,0.37,0.25l0.51,0.51c0.09,0.09,0.16,0.2,0.16,0.28
					C-250.72-104.53-250.88-104.53-250.99-104.53z M-254.2-104.53h-2.41v2.06h2.43L-254.2-104.53z M-254.16-102.04h-2.45v2.04h2.45
					V-102.04z M-254.16-99.58h-2.45v2.13h2.45V-99.58z M-252.83-93.38c-0.41,0-0.6-0.34-0.78-0.67c-0.71-1.31-0.76-1.44-1.51-2.15
					l0.02-0.09c1.38,0.41,2.95,0.87,2.95,2.09C-252.16-93.93-252.32-93.38-252.83-93.38z M-245.1-105.89c0,0.34-0.04,1.24-0.04,2.33
					c0,1.53,0.09,8.2,0.09,9.55c0,0.91-0.02,1.83-1.97,2.33c-0.43-1.21-1.19-1.54-1.95-1.88v-0.14c0.71,0.09,1.33,0.14,1.81,0.14
					c0.75,0,0.96-0.09,0.96-0.62v-4.67h-3c-0.16,2.01-0.41,5.18-4.06,7.22l-0.04-0.07c2.98-3.05,3.07-5.59,3.07-11.02
					c0-0.94,0-2.95-0.12-3.89c-0.04-0.35-0.11-0.69-0.21-1.15l1.6,0.8h2.63l0.35-0.43c0.09-0.11,0.16-0.21,0.25-0.21
					c0.07,0,0.16,0.09,0.23,0.14l0.9,0.73c0.07,0.05,0.14,0.16,0.14,0.23C-244.46-106.41-244.55-106.28-245.1-105.89z
					 M-246.2-102.74h-2.88c0,1.85-0.05,2.86-0.09,3.44h2.96V-102.74z M-246.2-106.55h-2.88v3.39h2.88V-106.55z"/>
			</g>
		</g>
	</g>
	<g>
		<rect x="-210.76" y="-115.78" class="st0" width="136.44" height="29.87"/>
		<g>
			<g>
				<path class="st1" d="M-173.58-104.85h-3.09c0.98,0.62,1.46,0.92,1.46,1.58c0,0.37-0.23,0.78-0.67,0.78
					c-0.5,0-0.53-0.27-0.66-1.05c-0.12-0.78-0.32-1.17-0.39-1.31h-0.78c-0.82,1.15-1.6,2.09-3.12,3.07l-0.07-0.09
					c1.1-1.28,2.64-3.87,3.09-5.09c0.05-0.14,0.12-0.44,0.11-0.96l1.63,0.85c0.12,0.07,0.16,0.14,0.16,0.23
					c0,0.18-0.27,0.27-0.71,0.41c-0.23,0.34-0.69,1.01-0.78,1.15h1.99l0.53-0.66c0.09-0.11,0.2-0.23,0.27-0.23
					c0.09,0,0.2,0.09,0.34,0.2l0.8,0.66c0.09,0.07,0.18,0.18,0.18,0.27C-173.31-104.88-173.47-104.85-173.58-104.85z M-166.46-96.86
					c-0.5,2.32-0.75,3.57-3.21,3.85c-0.04-0.67-0.64-1.37-1.35-1.88L-171-95c0.71,0.14,1.51,0.3,2,0.3c0.55,0,1.05-0.16,1.33-2.59
					h-5.16c0.02,0.62,0.05,3.66,0.07,4.35c0,0.09,0.04,0.6,0.04,0.73c0,0.51-0.46,0.75-0.87,0.75c-0.23,0-0.48-0.07-0.48-0.53
					c0-0.87,0.09-3.82,0.11-4.74c-1.76,2.11-4.03,3.73-6.64,4.63l-0.04-0.14c1.19-0.64,3.8-2.73,5.62-5.04h-3.51
					c-0.21,0.82-0.3,1.14-0.91,1.14c-0.41,0-0.62-0.14-0.62-0.43c0-0.05,0.2-0.6,0.32-0.92c0.66-1.85,0.69-2.34,0.75-3.35l1.44,0.82
					h3.62c0-0.16-0.02-1.47-0.02-1.76h-2.68c-0.14,0-1.26,0-2.09,0.18l-0.35-0.71c0.87,0.07,1.86,0.11,2.73,0.11h7.19l0.48-0.46
					c0.05-0.05,0.12-0.11,0.19-0.11c0.09,0,0.18,0.05,0.25,0.11l0.83,0.64c0.05,0.05,0.14,0.11,0.14,0.21c0,0.16-0.2,0.3-0.57,0.55
					c0,0.27,0.07,1.49,0.07,1.67c0,0.6-0.71,0.67-0.83,0.67c-0.46,0-0.44-0.39-0.43-0.67h-3.82v1.9h5.04l0.62-0.64
					c0.07-0.07,0.16-0.18,0.23-0.18c0.07,0,0.2,0.11,0.27,0.18l0.82,0.75c0.07,0.05,0.12,0.14,0.12,0.21
					C-165.73-97.16-166.02-97.07-166.46-96.86z M-173.93-99.61h-3.98c-0.18,0.55-0.2,0.69-0.5,1.9h4.47V-99.61z M-165.78-104.67
					h-5.16c1.33,0.51,1.84,0.73,1.84,1.47c0,0.48-0.37,0.66-0.64,0.66c-0.44,0-0.51-0.27-0.8-1.05c-0.11-0.32-0.41-0.78-0.69-1.08
					h-0.67c-0.57,0.8-1.24,1.6-2.08,2.2l-0.09-0.07c1.12-1.88,2.15-3.76,2.09-5.31l1.72,0.78c0.11,0.05,0.16,0.12,0.16,0.21
					c0,0.18-0.25,0.3-0.76,0.46c-0.18,0.34-0.34,0.64-0.76,1.29h3.74l0.59-0.83c0.07-0.11,0.16-0.21,0.27-0.21
					c0.12,0,0.25,0.11,0.34,0.18l0.99,0.83c0.09,0.07,0.18,0.16,0.18,0.27C-165.52-104.71-165.66-104.67-165.78-104.67z
					 M-169-101.79h-3.83v1.76h3.83V-101.79z"/>
				<path class="st1" d="M-158.73-106.21h0.73v9.02h2.01v0.57H-158v2.06c0,0.78,0.39,1.08,1.24,1.08h0.28v0.57h-4.51v-0.57h0.28
					c0.83,0,1.24-0.28,1.24-1.08v-2.06h-4.77v-0.62L-158.73-106.21z M-159.45-103.87l-4.1,6.67h4.1V-103.87z"/>
				<path class="st1" d="M-140.24-104.83c-0.02,1.12,0.02,8.36,0.04,9.07c0.04,1.03,0.07,1.88,0.09,2.17c0,0.05,0.02,0.28,0.02,0.32
					c0,0.48-0.44,0.8-0.94,0.8c-0.51,0-0.51-0.21-0.5-1.24h-10.79c0,0.69,0,0.78-0.07,0.91c-0.18,0.3-0.6,0.48-0.91,0.48
					c-0.35,0-0.5-0.23-0.5-0.55c0-0.23,0.11-1.28,0.12-1.49c0.11-2.02,0.18-5.64,0.18-7.6c0-1.33,0-3.5-0.14-4.72l1.63,0.87h10.27
					l0.59-0.55c0.14-0.14,0.28-0.2,0.35-0.2c0.07,0,0.16,0.05,0.3,0.16l0.67,0.55c0.2,0.16,0.27,0.23,0.27,0.35
					C-139.54-105.33-139.95-105.04-140.24-104.83z M-141.53-105.4h-3.37c0,0.91-0.02,5.36-0.02,6.37c0,0.32,0,0.91,0.05,0.99
					c0.09,0.12,0.35,0.14,0.69,0.14c0.66,0,0.98,0,1.24-1.69l0.11,0.02c0.18,0.8,0.27,1.24,0.51,1.38c0.41,0.25,0.46,0.28,0.46,0.39
					c0,0.25-0.25,0.57-0.5,0.76c-0.34,0.28-0.64,0.37-1.7,0.37c-1.44,0-2.06-0.11-2.06-1.3c0-1.06,0.04-6.26,0.04-7.45h-2
					c0,4.1-0.12,7.92-3.62,9.69l-0.05-0.09c2.4-2.41,2.4-4.74,2.43-9.6h-3v11.25h10.79V-105.4z"/>
				<path class="st1" d="M-121.41-97.45h-7.29c0,0.78,0.07,4.22,0.07,4.92c0,0.83-0.75,0.94-0.98,0.94c-0.51,0-0.55-0.28-0.55-0.59
					c0-0.48,0.07-1.28,0.09-1.76l0.07-3.51h-4.81c-0.32,0-1.24,0-2.09,0.16l-0.35-0.71c1.1,0.09,2.2,0.12,2.73,0.12h4.53
					c0.02-0.25,0.02-0.51,0.02-0.85v-2.93h-3.3c-0.32,0-1.22,0-2.09,0.16l-0.36-0.71c1.1,0.09,2.2,0.12,2.73,0.12h3.02
					c0.02-4.03-0.05-4.61-0.37-5.73l1.88,0.43c0.28,0.07,0.34,0.14,0.34,0.28c0,0.21-0.16,0.3-0.59,0.58c0,0.69-0.04,3.8-0.04,4.44
					h3.51l0.71-0.98c0.09-0.12,0.18-0.23,0.28-0.23c0.09,0,0.19,0.09,0.34,0.21l1.1,0.96c0.09,0.09,0.18,0.16,0.18,0.27
					c0,0.16-0.14,0.19-0.27,0.19h-5.84c0,1.26,0.02,2.79,0.02,3.78h4.86l0.82-1.03c0.11-0.12,0.2-0.23,0.28-0.23
					c0.11,0,0.21,0.09,0.34,0.21l1.1,1.01c0.09,0.09,0.18,0.16,0.18,0.27C-121.15-97.46-121.31-97.45-121.41-97.45z M-132.8-102.79
					c-0.59,0-0.69-0.43-0.94-1.51c-0.2-0.8-0.6-1.53-1.14-2.17l0.04-0.09c1.28,0.44,2.82,1.74,2.82,2.95
					C-132.02-102.88-132.54-102.79-132.8-102.79z M-124.62-105.34c-1.08,1.22-1.26,1.4-2.75,2.8l-0.11-0.12
					c0.14-0.21,1.56-2.68,1.67-4.28l1.72,0.87c0.11,0.05,0.25,0.14,0.25,0.28C-123.84-105.58-124.09-105.52-124.62-105.34z"/>
				<path class="st1" d="M-116.09-95.05c-1.81,2.09-2.66,2.8-3.82,3.46l-0.07-0.09c0.41-0.5,1.77-2.17,2.59-4.01
					c0.11-0.25,0.11-0.32,0.18-0.94l1.69,1.03c0.07,0.04,0.12,0.11,0.12,0.2C-115.4-95.14-115.77-95.09-116.09-95.05z
					 M-110.79-104.53h-2.08c0,0.82,0.02,5.11,0.04,7.08h0.43l0.44-0.53c0.11-0.12,0.2-0.23,0.28-0.23c0.12,0,0.19,0.09,0.32,0.2
					l0.58,0.53c0.09,0.09,0.18,0.16,0.18,0.27c0,0.16-0.14,0.2-0.27,0.2h-6.46c-0.16,0-1.26,0-2.08,0.16l-0.36-0.71
					c0.43,0.04,1.03,0.09,2.18,0.11c0.02-3.74,0.02-4.17,0-7.04c-0.83,0.04-1.12,0.09-1.42,0.14l-0.36-0.69
					c0.66,0.05,0.71,0.05,1.76,0.09c-0.04-1.81-0.12-2.17-0.35-2.8l1.92,0.46c0.09,0.02,0.18,0.14,0.18,0.23
					c0,0.12-0.09,0.27-0.53,0.55c0,0.16-0.04,1.31-0.04,1.58h2.41c-0.04-1.86-0.07-1.99-0.28-2.86l1.76,0.48
					c0.12,0.04,0.21,0.12,0.21,0.21c0,0.16-0.09,0.25-0.5,0.55c-0.04,0.44-0.05,0.85-0.05,1.61h0.59l0.43-0.58
					c0.07-0.11,0.18-0.21,0.28-0.21s0.28,0.16,0.37,0.25l0.51,0.51c0.09,0.09,0.16,0.2,0.16,0.28
					C-110.52-104.53-110.68-104.53-110.79-104.53z M-114-104.53h-2.41v2.06h2.43L-114-104.53z M-113.96-102.04h-2.45v2.04h2.45
					V-102.04z M-113.96-99.58h-2.45v2.13h2.45V-99.58z M-112.63-93.38c-0.41,0-0.6-0.34-0.78-0.67c-0.71-1.31-0.76-1.44-1.51-2.15
					l0.02-0.09c1.38,0.41,2.95,0.87,2.95,2.09C-111.96-93.93-112.12-93.38-112.63-93.38z M-104.89-105.89
					c0,0.34-0.04,1.24-0.04,2.33c0,1.53,0.09,8.2,0.09,9.55c0,0.91-0.02,1.83-1.97,2.33c-0.43-1.21-1.19-1.54-1.95-1.88v-0.14
					c0.71,0.09,1.33,0.14,1.81,0.14c0.75,0,0.96-0.09,0.96-0.62v-4.67h-3c-0.16,2.01-0.41,5.18-4.06,7.22l-0.04-0.07
					c2.98-3.05,3.07-5.59,3.07-11.02c0-0.94,0-2.95-0.12-3.89c-0.04-0.35-0.11-0.69-0.21-1.15l1.6,0.8h2.63l0.36-0.43
					c0.09-0.11,0.16-0.21,0.25-0.21c0.07,0,0.16,0.09,0.23,0.14l0.91,0.73c0.07,0.05,0.14,0.16,0.14,0.23
					C-104.26-106.41-104.34-106.28-104.89-105.89z M-105.99-102.74h-2.88c0,1.85-0.05,2.86-0.09,3.44h2.96V-102.74z M-105.99-106.55
					h-2.88v3.39h2.88V-106.55z"/>
			</g>
		</g>
	</g>
	<rect x="-350.96" y="-82.78" class="st2" width="42.97" height="26.92"/>
	<g>
		<g>
			<path class="st1" d="M-332.91-74.35v0.94c-2.82,4.35-3.82,6.81-4.05,10.77c-0.04,0.46-0.09,1.58-0.99,1.58
				c-0.44,0-0.91-0.37-0.91-0.98c0-1.26,1.24-4.99,4.99-10.91h-3.04c-2.57,0-2.96,1.19-3.35,2.33l-0.53-0.12l0.73-3.6H-332.91z"/>
			<path class="st1" d="M-320.1-74.1c-0.05,1.49,0.02,6,0.05,7.75c0,0.51,0.09,2.77,0.09,3.21c0,1.54,0,2.52-2.5,2.93
				c-0.11-0.69-0.39-1.12-1.65-1.78l0.02-0.12c0.27,0.04,0.82,0.12,1.85,0.12c0.87,0,0.89,0,0.89-2.06c0-1.37,0-2.34,0.02-3.07
				h-5.91c-0.27,3.16-1.86,5.86-4.49,7.15l-0.09-0.11c3.16-2.77,3.41-5.98,3.41-10.77c0-1.78,0-3.55-0.34-5.27l1.81,0.87h5.36
				l0.57-0.53c0.12-0.11,0.23-0.18,0.32-0.18c0.11,0,0.2,0.05,0.3,0.14l0.83,0.69c0.12,0.11,0.2,0.21,0.2,0.32
				C-319.37-74.61-319.49-74.49-320.1-74.1z M-321.34-70.94h-5.79c0,0.02-0.04,2.63-0.11,3.41h5.89V-70.94z M-321.34-74.81h-5.79
				v3.44h5.79V-74.81z"/>
		</g>
	</g>
	<rect x="-304.22" y="-82.78" class="st2" width="42.97" height="26.92"/>
	<g>
		<g>
			<path class="st1" d="M-286.12-64.96c0,2.06-1.62,3.9-4.19,3.9c-2.02,0-3.83-1.17-3.83-3.19c0-1.92,1.53-2.82,3.16-3.78
				c-0.94-0.55-2.64-1.54-2.64-3.48c0-1.76,1.38-3.18,3.55-3.18c2.43,0,3.25,1.81,3.25,2.8c0,1.51-1.46,2.61-2.22,3.18
				C-287.38-67.67-286.12-66.79-286.12-64.96z M-292.65-64.3c0,1.56,1.17,2.64,2.56,2.64c1.54,0,2.7-1.37,2.7-2.68
				c0-1.69-1.76-2.68-3.05-3.41C-291.25-67.14-292.65-66.06-292.65-64.3z M-288.12-71.69c0-1.35-0.91-2.4-2.2-2.4
				c-1.26,0-2.09,0.96-2.09,2.11c0,1.24,1.01,1.86,2.86,2.96C-289.05-69.45-288.12-70.21-288.12-71.69z"/>
			<path class="st1" d="M-273.36-74.1c-0.05,1.49,0.02,6,0.05,7.75c0,0.51,0.09,2.77,0.09,3.21c0,1.54,0,2.52-2.5,2.93
				c-0.11-0.69-0.39-1.12-1.65-1.78l0.02-0.12c0.27,0.04,0.82,0.12,1.85,0.12c0.87,0,0.89,0,0.89-2.06c0-1.37,0-2.34,0.02-3.07
				h-5.91c-0.27,3.16-1.86,5.86-4.49,7.15l-0.09-0.11c3.16-2.77,3.41-5.98,3.41-10.77c0-1.78,0-3.55-0.34-5.27l1.81,0.87h5.36
				l0.57-0.53c0.12-0.11,0.23-0.18,0.32-0.18c0.11,0,0.2,0.05,0.3,0.14l0.83,0.69c0.12,0.11,0.2,0.21,0.2,0.32
				C-272.63-74.61-272.76-74.49-273.36-74.1z M-274.6-70.94h-5.79c0,0.02-0.04,2.63-0.11,3.41h5.89V-70.94z M-274.6-74.81h-5.79
				v3.44h5.79V-74.81z"/>
		</g>
	</g>
	<rect x="-257.49" y="-82.78" class="st2" width="42.97" height="26.92"/>
	<g>
		<g>
			<path class="st1" d="M-242.61-66.54c-0.37,0.23-0.92,0.46-1.54,0.46c-1.76,0-3.18-1.78-3.18-3.94c0-2.45,1.76-4.67,3.8-4.67
				c2.02,0,4.08,2.31,4.08,6.12c0,4.1-2.31,7.51-5.02,7.51c-1.19,0-2.02-0.71-2.02-1.54c0-0.64,0.5-0.92,0.9-0.92
				c0.36,0,0.94,0.23,0.98,1.22c0.02,0.39,0.05,0.64,0.53,0.64s0.96-0.23,1.3-0.62c1.58-1.74,1.67-4.37,1.74-5.94
				C-241.39-67.67-241.76-67.07-242.61-66.54z M-242.03-73.12c-0.3-0.48-0.76-0.96-1.44-0.96c-0.94,0-2.27,0.99-2.27,3.9
				c0,0.82,0.2,3.3,2.02,3.3c0.67,0,1.81-0.5,2.64-2.41C-241.14-70.27-241.28-71.97-242.03-73.12z"/>
			<path class="st1" d="M-226.63-74.1c-0.05,1.49,0.02,6,0.05,7.75c0,0.51,0.09,2.77,0.09,3.21c0,1.54,0,2.52-2.5,2.93
				c-0.11-0.69-0.39-1.12-1.65-1.78l0.02-0.12c0.27,0.04,0.82,0.12,1.85,0.12c0.87,0,0.89,0,0.89-2.06c0-1.37,0-2.34,0.02-3.07
				h-5.91c-0.27,3.16-1.86,5.86-4.49,7.15l-0.09-0.11c3.16-2.77,3.41-5.98,3.41-10.77c0-1.78,0-3.55-0.34-5.27l1.81,0.87h5.36
				l0.57-0.53c0.12-0.11,0.23-0.18,0.32-0.18c0.11,0,0.2,0.05,0.3,0.14l0.83,0.69c0.12,0.11,0.2,0.21,0.2,0.32
				C-225.9-74.61-226.02-74.49-226.63-74.1z M-227.87-70.94h-5.79c0,0.02-0.04,2.63-0.11,3.41h5.89V-70.94z M-227.87-74.81h-5.79
				v3.44h5.79V-74.81z"/>
		</g>
	</g>
	<rect x="-210.76" y="-82.78" class="st2" width="42.97" height="26.92"/>
	<g>
		<g>
			<path class="st1" d="M-204.04-61.96h0.98c0.92,0,1.24-0.35,1.24-1.08v-9.6c0-0.55-0.51-0.64-0.85-0.64h-1.35v-0.55h0.32
				c1.37,0,2.68-0.62,2.89-0.75c0.12-0.07,0.18-0.11,0.25-0.11c0.16,0,0.2,0.11,0.2,0.25v11.39c0,0.76,0.37,1.08,1.24,1.08h0.98
				v0.57h-5.89V-61.96z"/>
			<path class="st1" d="M-192.23-61.06c-1.22,0-2.25-0.85-2.91-1.92c-0.75-1.22-1.08-3.41-1.08-5.06c0-3.78,1.61-6.66,3.99-6.66
				c1.83,0,3.99,1.97,3.99,6.81C-188.23-63.52-190.06-61.06-192.23-61.06z M-194.21-71.72c-0.25,0.89-0.41,2.38-0.41,3.85
				c0,3.96,0.94,6.21,2.4,6.21c1.22,0,1.77-1.63,1.97-2.31c0.25-0.91,0.43-2.41,0.43-3.9c0-4.05-0.98-6.21-2.4-6.21
				C-193.48-74.08-194.03-72.34-194.21-71.72z"/>
			<path class="st1" d="M-175.46-74.1c-0.05,1.49,0.02,6,0.05,7.75c0,0.51,0.09,2.77,0.09,3.21c0,1.54,0,2.52-2.5,2.93
				c-0.11-0.69-0.39-1.12-1.65-1.78l0.02-0.12c0.27,0.04,0.82,0.12,1.85,0.12c0.87,0,0.89,0,0.89-2.06c0-1.37,0-2.34,0.02-3.07
				h-5.91c-0.27,3.16-1.86,5.86-4.49,7.15l-0.09-0.11c3.16-2.77,3.41-5.98,3.41-10.77c0-1.78,0-3.55-0.34-5.27l1.81,0.87h5.36
				l0.57-0.53c0.12-0.11,0.23-0.18,0.32-0.18c0.11,0,0.2,0.05,0.3,0.14l0.83,0.69c0.12,0.11,0.2,0.21,0.2,0.32
				C-174.73-74.61-174.85-74.49-175.46-74.1z M-176.7-70.94h-5.79c0,0.02-0.04,2.63-0.11,3.41h5.89V-70.94z M-176.7-74.81h-5.79
				v3.44h5.79V-74.81z"/>
		</g>
	</g>
	<rect x="-164.02" y="-82.78" class="st2" width="42.97" height="26.92"/>
	<g>
		<g>
			<path class="st1" d="M-157.31-61.96h0.98c0.92,0,1.24-0.35,1.24-1.08v-9.6c0-0.55-0.51-0.64-0.85-0.64h-1.35v-0.55h0.32
				c1.37,0,2.68-0.62,2.89-0.75c0.12-0.07,0.18-0.11,0.25-0.11c0.16,0,0.2,0.11,0.2,0.25v11.39c0,0.76,0.37,1.08,1.24,1.08h0.98
				v0.57h-5.89V-61.96z"/>
			<path class="st1" d="M-148.44-61.96h0.98c0.92,0,1.24-0.35,1.24-1.08v-9.6c0-0.55-0.51-0.64-0.85-0.64h-1.35v-0.55h0.32
				c1.37,0,2.68-0.62,2.89-0.75c0.12-0.07,0.18-0.11,0.25-0.11c0.16,0,0.2,0.11,0.2,0.25v11.39c0,0.76,0.37,1.08,1.24,1.08h0.98
				v0.57h-5.89V-61.96z"/>
			<path class="st1" d="M-128.72-74.1c-0.05,1.49,0.02,6,0.05,7.75c0,0.51,0.09,2.77,0.09,3.21c0,1.54,0,2.52-2.5,2.93
				c-0.11-0.69-0.39-1.12-1.65-1.78l0.02-0.12c0.27,0.04,0.82,0.12,1.85,0.12c0.87,0,0.89,0,0.89-2.06c0-1.37,0-2.34,0.02-3.07
				h-5.91c-0.27,3.16-1.86,5.86-4.49,7.15l-0.09-0.11c3.16-2.77,3.41-5.98,3.41-10.77c0-1.78,0-3.55-0.34-5.27l1.81,0.87h5.36
				l0.57-0.53c0.12-0.11,0.23-0.18,0.32-0.18c0.11,0,0.2,0.05,0.3,0.14l0.83,0.69c0.12,0.11,0.2,0.21,0.2,0.32
				C-127.99-74.61-128.12-74.49-128.72-74.1z M-129.96-70.94h-5.79c0,0.02-0.04,2.63-0.11,3.41h5.89V-70.94z M-129.96-74.81h-5.79
				v3.44h5.79V-74.81z"/>
		</g>
	</g>
	<rect x="-117.29" y="-82.78" class="st2" width="42.97" height="26.92"/>
	<g>
		<g>
			<path class="st1" d="M-110.57-61.96h0.98c0.92,0,1.24-0.35,1.24-1.08v-9.6c0-0.55-0.51-0.64-0.85-0.64h-1.35v-0.55h0.32
				c1.37,0,2.68-0.62,2.89-0.75c0.12-0.07,0.18-0.11,0.25-0.11c0.16,0,0.2,0.11,0.2,0.25v11.39c0,0.76,0.37,1.08,1.24,1.08h0.98
				v0.57h-5.89V-61.96z"/>
			<path class="st1" d="M-95.76-61.39h-6.97v-0.48c0.36-1.12,1.19-2.36,2.61-3.97c2.61-3.02,3.5-4.03,3.5-5.8
				c0-1.33-0.85-2.43-2.36-2.43c-1.24,0-1.99,0.75-1.99,1.38c0,0.05,0,0.28,0.18,0.55c0.23,0.35,0.37,0.55,0.37,0.89
				c0,0.53-0.43,0.99-0.96,0.99c-0.62,0-1.01-0.59-1.01-1.24c0-1.3,1.26-3.18,3.82-3.18c2.2,0,3.55,1.38,3.55,3.3
				c0,1.79-1.03,2.77-2.63,4.13c-0.6,0.5-2.95,2.5-3.83,4.45h2.45c2.48,0,3.07-0.96,3.6-2.43l0.53,0.2L-95.76-61.39z"/>
			<path class="st1" d="M-81.99-74.1c-0.05,1.49,0.02,6,0.05,7.75c0,0.51,0.09,2.77,0.09,3.21c0,1.54,0,2.52-2.5,2.93
				c-0.11-0.69-0.39-1.12-1.65-1.78l0.02-0.12c0.27,0.04,0.82,0.12,1.85,0.12c0.87,0,0.89,0,0.89-2.06c0-1.37,0-2.34,0.02-3.07
				h-5.91c-0.27,3.16-1.86,5.86-4.49,7.15l-0.09-0.11c3.16-2.77,3.41-5.98,3.41-10.77c0-1.78,0-3.55-0.34-5.27l1.81,0.87h5.36
				l0.57-0.53c0.12-0.11,0.23-0.18,0.32-0.18c0.11,0,0.2,0.05,0.3,0.14l0.83,0.69c0.12,0.11,0.2,0.21,0.2,0.32
				C-81.26-74.61-81.38-74.49-81.99-74.1z M-83.23-70.94h-5.79c0,0.02-0.04,2.63-0.11,3.41h5.89V-70.94z M-83.23-74.81h-5.79v3.44
				h5.79V-74.81z"/>
		</g>
	</g>
	<g>
		<g>
			<path class="st3" d="M-309.3-16.84c-0.11-0.48-0.39-1.21-0.67-1.81h-0.69c-0.43,0.73-0.95,1.41-1.44,1.92
				c-0.2-0.17-0.54-0.41-0.78-0.53c0.88-0.84,1.75-2.25,2.26-3.64l1.14,0.38c-0.03,0.1-0.16,0.15-0.31,0.13
				c-0.12,0.3-0.27,0.62-0.42,0.92h4.15v0.83h-2.91c0.25,0.51,0.46,1.08,0.57,1.47L-309.3-16.84z M-300.35-11.78l0.23-0.01
				l0.58,0.09c0,0.11-0.03,0.21-0.04,0.32c-0.39,3.78-0.69,3.84-2.43,3.84c-0.34,0-0.75,0-1.18-0.03c-0.01-0.3-0.12-0.67-0.29-0.95
				c0.75,0.09,1.47,0.09,1.73,0.09c0.27,0,0.42-0.02,0.54-0.14c0.24-0.21,0.41-0.84,0.57-2.32h-4.71v4h-0.99v-3.71
				c-1.5,1.5-3.78,2.77-5.81,3.43c-0.15-0.24-0.43-0.62-0.64-0.81c1.93-0.54,4.12-1.65,5.54-2.92h-3.2l-0.17,0.55l-0.99-0.15
				c0.32-0.96,0.69-2.47,0.93-3.66h4.33v-1.64h-5.15v-0.87h11.01v3.37h-4.88v1.5H-300.35z M-306.35-13.28h-3.53
				c-0.1,0.5-0.24,1.02-0.36,1.5h3.89V-13.28z M-303.51-20.54c-0.03,0.1-0.15,0.13-0.3,0.13c-0.13,0.31-0.29,0.63-0.45,0.93h5.34
				v0.83h-3.58c0.39,0.51,0.73,1.08,0.91,1.5l-0.88,0.36c-0.19-0.51-0.64-1.26-1.12-1.86h-1.17c-0.48,0.72-1.05,1.36-1.63,1.83
				c-0.18-0.17-0.52-0.42-0.76-0.56c1.02-0.78,1.96-2.11,2.49-3.52L-303.51-20.54z M-305.36-15.79v1.64h3.88v-1.64H-305.36z"/>
			<path class="st3" d="M-290.97-8.17h-6.65v-0.76l1.1-1.16c2.67-2.7,4.02-4.33,4.02-6.17c0-1.2-0.53-2.31-2.14-2.31
				c-0.9,0-1.71,0.5-2.25,0.93l-0.42-0.87c0.69-0.61,1.71-1.09,2.91-1.09c2.27,0,3.17,1.65,3.17,3.2c0,2.11-1.48,3.92-3.81,6.25
				l-0.88,0.93v0.03h4.96V-8.17z"/>
			<path class="st3" d="M-288.78-19.43h12.45v11.98h-1.05v-0.99h-10.39v1.11h-1V-19.43z M-287.78-9.41h10.39v-9.03h-3.27v4.62
				c0,0.54,0.06,0.6,0.56,0.6h0.78c0.83,0,0.84,0,0.88-1.86c0.2,0.17,0.53,0.33,0.8,0.41c-0.03,0.63-0.08,1.37-0.17,1.63
				c-0.17,0.41-0.47,0.67-1.44,0.67h-1.05c-1.35,0-1.35-0.76-1.35-1.57v-4.5h-2.15c-0.17,3.12-0.58,5.65-3.06,7.05
				c-0.12-0.24-0.42-0.57-0.63-0.74c2.16-1.18,2.58-3.38,2.7-6.31h-3V-9.41z"/>
			<path class="st3" d="M-260.79-12.17v1.02h-6.32v4.23h-1.05v-4.23h-6.21v-1.02h6.21v-2.77h-5.2v-1.01h5.2v-4.89l1.35,0.09
				c-0.02,0.11-0.11,0.18-0.3,0.21v4.59h5.42v1.01h-5.42v2.77H-260.79z M-272-20.42c0.75,1.08,1.54,2.52,1.86,3.44l-0.96,0.43
				c-0.3-0.92-1.07-2.4-1.8-3.5L-272-20.42z M-262.01-19.94c-0.03,0.09-0.15,0.13-0.33,0.13c-0.51,0.99-1.35,2.42-2.03,3.3
				c-0.01,0-0.85-0.39-0.85-0.39c0.67-0.95,1.5-2.47,1.95-3.57L-262.01-19.94z"/>
			<path class="st3" d="M-252.03-11.53v0.92h-7.54v-0.92h1.52v-6.33h-1.31v-0.92h1.31v-1.88l1.21,0.08
				c-0.01,0.1-0.09,0.17-0.29,0.19v1.61h2.92v-1.88l1.23,0.08c-0.02,0.1-0.09,0.18-0.29,0.19v1.61h1.14v0.92h-1.14v6.33H-252.03z
				 M-256.25-9.86c-0.04,0.09-0.15,0.14-0.31,0.14c-0.53,1-1.37,2.11-2.17,2.82c-0.18-0.17-0.53-0.43-0.75-0.57
				c0.78-0.63,1.59-1.71,2.07-2.78L-256.25-9.86z M-254.21-17.86h-2.92v1.48h2.92V-17.86z M-257.13-15.53v1.51h2.92v-1.51H-257.13z
				 M-257.13-13.19v1.66h2.92v-1.66H-257.13z M-246.09-20.06v11.89c0,1.21-0.56,1.3-2.81,1.28c-0.03-0.26-0.18-0.71-0.31-0.98
				c0.48,0.02,0.94,0.03,1.29,0.03c0.76,0,0.85,0,0.85-0.33v-3.92h-3.42c-0.18,1.86-0.64,3.83-1.77,5.28
				c-0.15-0.2-0.55-0.5-0.78-0.6c0.15-0.18,0.29-0.38,0.42-0.58c-0.03,0-0.67,0.39-0.83,0.48c-0.28-0.62-0.96-1.62-1.56-2.33
				l0.79-0.43c0.6,0.71,1.28,1.63,1.59,2.25c1.17-1.96,1.29-4.52,1.29-6.53v-5.52H-246.09z M-250.38-14.54c0,0.48-0.02,1-0.04,1.54
				h3.36v-2.64h-3.31V-14.54z M-247.07-19.13h-3.31v2.58h3.31V-19.13z"/>
			<path class="st3" d="M-312.3,1.4c0.97,0.38,2.19,1.04,2.8,1.54l-0.57,0.84c-0.6-0.51-1.8-1.2-2.77-1.62L-312.3,1.4z
				 M-312.44,10.24c0.75-1.19,1.83-3.23,2.61-4.95l0.78,0.63c-0.72,1.61-1.68,3.5-2.38,4.67c0.06,0.08,0.08,0.15,0.08,0.21
				s-0.02,0.12-0.05,0.18L-312.44,10.24z M-311.49-2.69c0.96,0.42,2.15,1.11,2.73,1.65l-0.58,0.83c-0.57-0.55-1.74-1.29-2.71-1.74
				L-311.49-2.69z M-298.89,5.27h-4.26c0.75,2.38,2.24,4.15,4.44,4.96c-0.24,0.22-0.55,0.6-0.7,0.88c-2.34-1-3.87-2.99-4.7-5.68
				c-0.43,2.17-1.6,4.18-4.6,5.7c-0.17-0.21-0.53-0.57-0.78-0.73c2.83-1.38,3.95-3.18,4.38-5.13h-3.69V4.31h3.85
				c0.08-0.65,0.09-1.31,0.09-1.96V0.64h-3v-0.96h3v-2.49l1.3,0.09c-0.01,0.11-0.1,0.18-0.3,0.21v2.19h3.54v4.63h1.42V5.27z
				 M-303.86,0.64v1.72c0,0.66-0.01,1.3-0.09,1.95h2.64V0.64H-303.86z"/>
			<path class="st3" d="M-294.17,0.58c-0.15-0.38-0.45-0.94-0.76-1.41h-0.77c-0.43,0.63-0.92,1.22-1.39,1.67
				c-0.2-0.17-0.54-0.4-0.76-0.54c0.85-0.72,1.71-1.96,2.2-3.19l1.16,0.39c-0.04,0.08-0.15,0.13-0.31,0.12
				c-0.11,0.24-0.24,0.48-0.38,0.72h4.14v0.84h-2.83c0.25,0.37,0.48,0.78,0.6,1.08L-294.17,0.58z M-287.34,6.62
				c-0.02,0.11-0.09,0.18-0.3,0.21v0.86h3.58v0.85h-3.58v2.57h-1.03V8.54h-4.02c-0.29,0.97-1.21,2-3.96,2.71
				c-0.13-0.21-0.42-0.55-0.64-0.75c2.31-0.52,3.19-1.27,3.51-1.96h-3.79V7.69h3.97V6.55l1.32,0.09c-0.01,0.09-0.11,0.17-0.3,0.2
				v0.86h3.92V6.55h-7.09V0.65h10.05v5.89h-2.73v0.02L-287.34,6.62z M-294.81,1.36v1.02h8.1V1.36H-294.81z M-294.81,3.05V4.1h8.1
				V3.05H-294.81z M-294.81,5.84h8.1V4.79h-8.1V5.84z M-288.54-2.54c-0.03,0.09-0.13,0.13-0.32,0.13c-0.1,0.24-0.24,0.5-0.38,0.73
				h5.31v0.84h-3.45c0.31,0.37,0.62,0.77,0.78,1.07l-0.84,0.41c-0.21-0.41-0.64-1-1.08-1.47h-1.29c-0.42,0.54-0.89,1.04-1.37,1.41
				c-0.2-0.17-0.57-0.38-0.81-0.5c0.92-0.66,1.8-1.8,2.27-2.98L-288.54-2.54z"/>
			<path class="st3" d="M-270.84-2.02c-0.04,0.08-0.16,0.11-0.3,0.09c-0.55,0.53-1.42,1.25-2.14,1.77c0.31,0.45,0.67,0.87,1.05,1.26
				c0.76-0.58,1.71-1.42,2.28-2.04l0.92,0.67c-0.06,0.08-0.2,0.09-0.32,0.08c-0.57,0.54-1.53,1.29-2.29,1.84
				c0.87,0.78,1.88,1.41,2.94,1.83c-0.22,0.21-0.54,0.58-0.69,0.85c-0.78-0.34-1.51-0.79-2.21-1.33v0.57h-1.89v2.38h3.69v0.95h-3.69
				V9.5c0,0.48,0.09,0.55,0.63,0.55h1.86c0.49,0,0.57-0.3,0.63-1.96c0.22,0.18,0.64,0.35,0.92,0.42c-0.11,1.94-0.38,2.48-1.47,2.48
				h-2.05c-1.23,0-1.54-0.32-1.54-1.49V6.91h-2.89c-0.24,1.67-1.16,3.21-4.17,4.27c-0.12-0.24-0.42-0.61-0.65-0.79
				c2.66-0.9,3.53-2.16,3.78-3.48h-3.48V5.96h3.58V3.58h-1.68V3.1c-0.72,0.55-1.5,1.02-2.26,1.38c-0.13-0.24-0.42-0.57-0.63-0.77
				c1.06-0.45,2.16-1.17,3.12-2.08c-0.48-0.49-1.26-1.17-1.92-1.66l0.64-0.54c0.64,0.45,1.42,1.08,1.91,1.56
				c0.61-0.69,1.14-1.44,1.53-2.25h-3.96v-0.9h4.52l0.18-0.06c0.39,0.22,0.55,0.3,0.71,0.36c-0.02,0.07-0.09,0.13-0.17,0.17
				c-0.65,1.69-1.77,3.16-3.09,4.32h7.38c-1.52-1.33-2.75-3.12-3.53-5.13l0.88-0.27c0.27,0.69,0.6,1.35,0.99,1.96
				c0.69-0.55,1.49-1.3,1.98-1.88L-270.84-2.02z M-274.53,5.96V3.58h-2.82v2.38H-274.53z"/>
			<path class="st3" d="M-259.95,4.22c0.32,0.99,0.75,1.89,1.29,2.67c1.04-0.62,2.29-1.49,3.06-2.15l0.96,0.71
				c-0.04,0.08-0.18,0.11-0.33,0.08c-0.82,0.63-2.1,1.44-3.19,2.02c1.09,1.29,2.53,2.22,4.38,2.71c-0.23,0.2-0.51,0.6-0.66,0.89
				c-3.32-1.02-5.34-3.33-6.42-6.72c-0.72,0.66-1.62,1.29-2.59,1.84l0.29,0.04c-0.02,0.09-0.09,0.17-0.29,0.2v3.1l4.32-0.66
				l0.04,0.86c-2.35,0.42-4.86,0.84-6.43,1.08c-0.01,0.12-0.1,0.19-0.19,0.22l-0.48-1.12c0.5-0.06,1.09-0.15,1.74-0.24V6.82
				c-0.93,0.46-1.88,0.84-2.75,1.12c-0.15-0.24-0.45-0.62-0.66-0.83c1.98-0.54,4.3-1.67,5.85-2.89h-5.64V3.34h6.27V1.82h-4.57V0.97
				h4.57v-1.44h-5.44v-0.88h5.44v-1.49l1.31,0.09c-0.02,0.11-0.09,0.18-0.29,0.21v1.18h5.62v0.88h-5.62v1.44h4.75v0.85h-4.75v1.51
				h6.34v0.89H-259.95z"/>
		</g>
	</g>
	<line class="st4" x1="-283.35" y1="-46.17" x2="-283.35" y2="-25.88"/>
	<circle class="st4" cx="-283.35" cy="-46.83" r="3.33"/>
	<g>
		<g>
			<path class="st3" d="M-167.64-16.84c-0.1-0.48-0.39-1.21-0.67-1.81H-169c-0.44,0.73-0.95,1.41-1.44,1.92
				c-0.2-0.17-0.54-0.41-0.78-0.53c0.88-0.84,1.75-2.25,2.27-3.64l1.14,0.38c-0.03,0.1-0.16,0.15-0.31,0.13
				c-0.12,0.3-0.27,0.62-0.42,0.92h4.15v0.83h-2.91c0.25,0.51,0.46,1.08,0.57,1.47L-167.64-16.84z M-158.69-11.78l0.23-0.01
				l0.58,0.09c0,0.11-0.03,0.21-0.04,0.32c-0.39,3.78-0.69,3.84-2.43,3.84c-0.35,0-0.75,0-1.19-0.03c-0.01-0.3-0.12-0.67-0.29-0.95
				c0.75,0.09,1.47,0.09,1.73,0.09c0.27,0,0.42-0.02,0.54-0.14c0.24-0.21,0.4-0.84,0.57-2.32h-4.71v4h-0.99v-3.71
				c-1.5,1.5-3.78,2.77-5.81,3.43c-0.15-0.24-0.43-0.62-0.64-0.81c1.94-0.54,4.12-1.65,5.54-2.92h-3.2l-0.16,0.55l-0.99-0.15
				c0.31-0.96,0.69-2.47,0.93-3.66h4.33v-1.64h-5.15v-0.87h11.01v3.37h-4.88v1.5H-158.69z M-164.69-13.28h-3.52
				c-0.11,0.5-0.24,1.02-0.36,1.5h3.89V-13.28z M-161.85-20.54c-0.03,0.1-0.15,0.13-0.3,0.13c-0.13,0.31-0.29,0.63-0.45,0.93h5.34
				v0.83h-3.58c0.39,0.51,0.74,1.08,0.92,1.5l-0.88,0.36c-0.2-0.51-0.65-1.26-1.12-1.86h-1.17c-0.48,0.72-1.05,1.36-1.63,1.83
				c-0.18-0.17-0.53-0.42-0.77-0.56c1.02-0.78,1.96-2.11,2.49-3.52L-161.85-20.54z M-163.7-15.79v1.64h3.88v-1.64H-163.7z"/>
			<path class="st3" d="M-151.98-14.24c1.32,0.23,2.44,1.29,2.44,2.91c0,1.79-1.29,3.34-3.81,3.34c-1.12,0-2.15-0.36-2.66-0.72
				l0.38-0.96c0.41,0.27,1.31,0.67,2.29,0.67c1.89,0,2.51-1.32,2.51-2.35c0-1.65-1.4-2.4-2.87-2.4h-0.73v-0.93h0.73
				c1.08,0,2.47-0.67,2.47-2.08c0-0.97-0.58-1.81-1.93-1.81c-0.83,0-1.6,0.4-2.06,0.73l-0.38-0.92c0.54-0.42,1.59-0.84,2.67-0.84
				c2.06,0,2.97,1.3,2.97,2.66c0,1.15-0.74,2.19-2.04,2.65V-14.24z"/>
			<path class="st3" d="M-147.12-19.43h12.45v11.98h-1.05v-0.99h-10.39v1.11h-1V-19.43z M-146.11-9.41h10.39v-9.03h-3.27v4.62
				c0,0.54,0.06,0.6,0.56,0.6h0.78c0.82,0,0.84,0,0.88-1.86c0.2,0.17,0.53,0.33,0.79,0.41c-0.03,0.63-0.08,1.37-0.17,1.63
				c-0.17,0.41-0.47,0.67-1.44,0.67h-1.05c-1.35,0-1.35-0.76-1.35-1.57v-4.5h-2.15c-0.16,3.12-0.58,5.65-3.06,7.05
				c-0.12-0.24-0.42-0.57-0.63-0.74c2.16-1.18,2.58-3.38,2.7-6.31h-3V-9.41z"/>
			<path class="st3" d="M-119.13-12.17v1.02h-6.32v4.23h-1.05v-4.23h-6.21v-1.02h6.21v-2.77h-5.21v-1.01h5.21v-4.89l1.35,0.09
				c-0.02,0.11-0.11,0.18-0.3,0.21v4.59h5.42v1.01h-5.42v2.77H-119.13z M-130.33-20.42c0.75,1.08,1.54,2.52,1.86,3.44l-0.96,0.43
				c-0.3-0.92-1.07-2.4-1.8-3.5L-130.33-20.42z M-120.35-19.94c-0.03,0.09-0.15,0.13-0.33,0.13c-0.51,0.99-1.35,2.42-2.02,3.3
				c-0.02,0-0.86-0.39-0.86-0.39c0.67-0.95,1.5-2.47,1.95-3.57L-120.35-19.94z"/>
			<path class="st3" d="M-110.37-11.53v0.92h-7.54v-0.92h1.51v-6.33h-1.31v-0.92h1.31v-1.88l1.21,0.08
				c-0.01,0.1-0.09,0.17-0.28,0.19v1.61h2.92v-1.88l1.23,0.08c-0.02,0.1-0.09,0.18-0.29,0.19v1.61h1.14v0.92h-1.14v6.33H-110.37z
				 M-114.58-9.86c-0.04,0.09-0.15,0.14-0.32,0.14c-0.52,1-1.36,2.11-2.17,2.82c-0.18-0.17-0.53-0.43-0.75-0.57
				c0.78-0.63,1.59-1.71,2.07-2.78L-114.58-9.86z M-112.55-17.86h-2.92v1.48h2.92V-17.86z M-115.47-15.53v1.51h2.92v-1.51H-115.47z
				 M-115.47-13.19v1.66h2.92v-1.66H-115.47z M-104.43-20.06v11.89c0,1.21-0.55,1.3-2.8,1.28c-0.03-0.26-0.18-0.71-0.32-0.98
				c0.48,0.02,0.94,0.03,1.29,0.03c0.77,0,0.86,0,0.86-0.33v-3.92h-3.42c-0.18,1.86-0.65,3.83-1.77,5.28
				c-0.15-0.2-0.55-0.5-0.78-0.6c0.15-0.18,0.29-0.38,0.42-0.58c-0.03,0-0.67,0.39-0.82,0.48c-0.29-0.62-0.96-1.62-1.56-2.33
				l0.79-0.43c0.6,0.71,1.28,1.63,1.59,2.25c1.17-1.96,1.29-4.52,1.29-6.53v-5.52H-104.43z M-108.72-14.54c0,0.48-0.01,1-0.04,1.54
				h3.36v-2.64h-3.32V-14.54z M-105.4-19.13h-3.32v2.58h3.32V-19.13z"/>
			<path class="st3" d="M-170.64,1.4c0.98,0.38,2.19,1.04,2.81,1.54l-0.57,0.84c-0.6-0.51-1.8-1.2-2.78-1.62L-170.64,1.4z
				 M-170.77,10.24c0.75-1.19,1.83-3.23,2.61-4.95l0.78,0.63c-0.72,1.61-1.68,3.5-2.38,4.67c0.06,0.08,0.08,0.15,0.08,0.21
				s-0.01,0.12-0.05,0.18L-170.77,10.24z M-169.83-2.69c0.96,0.42,2.15,1.11,2.73,1.65l-0.58,0.83c-0.57-0.55-1.74-1.29-2.71-1.74
				L-169.83-2.69z M-157.23,5.27h-4.26c0.75,2.38,2.24,4.15,4.44,4.96c-0.24,0.22-0.55,0.6-0.7,0.88c-2.34-1-3.87-2.99-4.69-5.68
				c-0.44,2.17-1.61,4.18-4.61,5.7c-0.17-0.21-0.53-0.57-0.78-0.73c2.83-1.38,3.94-3.18,4.38-5.13h-3.69V4.31h3.86
				c0.07-0.65,0.09-1.31,0.09-1.96V0.64h-3v-0.96h3v-2.49l1.3,0.09c-0.02,0.11-0.11,0.18-0.3,0.21v2.19h3.54v4.63h1.42V5.27z
				 M-162.2,0.64v1.72c0,0.66-0.01,1.3-0.09,1.95h2.64V0.64H-162.2z"/>
			<path class="st3" d="M-152.5,0.58c-0.15-0.38-0.45-0.94-0.77-1.41h-0.77c-0.43,0.63-0.91,1.22-1.39,1.67
				c-0.2-0.17-0.54-0.4-0.76-0.54c0.85-0.72,1.71-1.96,2.2-3.19l1.16,0.39c-0.04,0.08-0.15,0.13-0.32,0.12
				c-0.1,0.24-0.24,0.48-0.38,0.72h4.14v0.84h-2.83c0.25,0.37,0.48,0.78,0.6,1.08L-152.5,0.58z M-145.68,6.62
				c-0.02,0.11-0.09,0.18-0.3,0.21v0.86h3.59v0.85h-3.59v2.57h-1.03V8.54h-4.02c-0.29,0.97-1.21,2-3.96,2.71
				c-0.13-0.21-0.42-0.55-0.65-0.75c2.31-0.52,3.19-1.27,3.51-1.96h-3.79V7.69h3.97V6.55l1.32,0.09c-0.01,0.09-0.1,0.17-0.3,0.2
				v0.86h3.92V6.55h-7.09V0.65h10.05v5.89h-2.73v0.02L-145.68,6.62z M-153.15,1.36v1.02h8.1V1.36H-153.15z M-153.15,3.05V4.1h8.1
				V3.05H-153.15z M-153.15,5.84h8.1V4.79h-8.1V5.84z M-146.88-2.54c-0.03,0.09-0.13,0.13-0.32,0.13c-0.1,0.24-0.24,0.5-0.38,0.73
				h5.31v0.84h-3.45c0.32,0.37,0.62,0.77,0.78,1.07l-0.84,0.41c-0.21-0.41-0.65-1-1.08-1.47h-1.29c-0.42,0.54-0.89,1.04-1.37,1.41
				c-0.19-0.17-0.57-0.38-0.81-0.5c0.91-0.66,1.8-1.8,2.26-2.98L-146.88-2.54z"/>
			<path class="st3" d="M-129.18-2.02c-0.04,0.08-0.17,0.11-0.3,0.09c-0.55,0.53-1.42,1.25-2.14,1.77c0.31,0.45,0.68,0.87,1.05,1.26
				c0.76-0.58,1.71-1.42,2.28-2.04l0.92,0.67c-0.06,0.08-0.2,0.09-0.32,0.08c-0.57,0.54-1.53,1.29-2.29,1.84
				c0.87,0.78,1.88,1.41,2.94,1.83c-0.22,0.21-0.54,0.58-0.69,0.85c-0.78-0.34-1.51-0.79-2.21-1.33v0.57h-1.89v2.38h3.69v0.95h-3.69
				V9.5c0,0.48,0.09,0.55,0.63,0.55h1.86c0.5,0,0.57-0.3,0.63-1.96c0.22,0.18,0.64,0.35,0.92,0.42c-0.1,1.94-0.38,2.48-1.47,2.48
				h-2.05c-1.23,0-1.54-0.32-1.54-1.49V6.91h-2.9c-0.24,1.67-1.16,3.21-4.17,4.27c-0.12-0.24-0.42-0.61-0.65-0.79
				c2.66-0.9,3.53-2.16,3.78-3.48h-3.48V5.96h3.58V3.58h-1.68V3.1c-0.72,0.55-1.5,1.02-2.26,1.38c-0.13-0.24-0.42-0.57-0.63-0.77
				c1.06-0.45,2.16-1.17,3.12-2.08c-0.48-0.49-1.26-1.17-1.92-1.66l0.65-0.54c0.64,0.45,1.42,1.08,1.9,1.56
				c0.62-0.69,1.14-1.44,1.53-2.25h-3.96v-0.9h4.51l0.18-0.06c0.39,0.22,0.56,0.3,0.71,0.36c-0.01,0.07-0.09,0.13-0.17,0.17
				c-0.64,1.69-1.77,3.16-3.09,4.32h7.38c-1.51-1.33-2.75-3.12-3.52-5.13l0.88-0.27c0.27,0.69,0.6,1.35,0.99,1.96
				c0.69-0.55,1.48-1.3,1.98-1.88L-129.18-2.02z M-132.87,5.96V3.58h-2.82v2.38H-132.87z"/>
			<path class="st3" d="M-118.29,4.22c0.31,0.99,0.75,1.89,1.29,2.67c1.04-0.62,2.29-1.49,3.06-2.15l0.96,0.71
				c-0.04,0.08-0.18,0.11-0.33,0.08c-0.82,0.63-2.1,1.44-3.19,2.02c1.09,1.29,2.53,2.22,4.38,2.71c-0.22,0.2-0.51,0.6-0.66,0.89
				c-3.31-1.02-5.34-3.33-6.42-6.72c-0.72,0.66-1.62,1.29-2.59,1.84l0.29,0.04c-0.01,0.09-0.09,0.17-0.29,0.2v3.1l4.32-0.66
				l0.04,0.86c-2.35,0.42-4.86,0.84-6.43,1.08c-0.02,0.12-0.11,0.19-0.2,0.22l-0.48-1.12c0.5-0.06,1.1-0.15,1.74-0.24V6.82
				c-0.93,0.46-1.88,0.84-2.74,1.12c-0.15-0.24-0.45-0.62-0.66-0.83c1.98-0.54,4.3-1.67,5.85-2.89H-126V3.34h6.27V1.82h-4.57V0.97
				h4.57v-1.44h-5.44v-0.88h5.44v-1.49l1.31,0.09c-0.01,0.11-0.09,0.18-0.29,0.21v1.18h5.62v0.88h-5.62v1.44h4.75v0.85h-4.75v1.51
				h6.34v0.89H-118.29z"/>
		</g>
	</g>
	<line class="st4" x1="-141.69" y1="-46.17" x2="-141.69" y2="-25.88"/>
	<circle class="st4" cx="-141.69" cy="-46.83" r="3.33"/>
</g>
<g>
	<g>
		<text transform="matrix(1 0 0 1 39.2371 107.6151)" class="st3 st5 st6">決算発表</text>
	</g>
	<rect x="2.55" y="33" class="st2" width="42.97" height="26.92"/>
	<g>
		<text transform="matrix(1 0 0 1 10.7332 54.3912)" class="st1 st7 st8">1月</text>
	</g>
	<rect x="49.29" y="33" class="st2" width="42.97" height="26.92"/>
	<g>
		<text transform="matrix(1 0 0 1 57.4675 54.3912)" class="st1 st7 st8">2月</text>
	</g>
	<g>
		<rect x="2.55" class="st0" width="136.44" height="29.87"/>
		<g>
			<text transform="matrix(1 0 0 1 30.8542 22.8619)" class="st1 st7 st8">第1四半期</text>
		</g>
	</g>
	<g>
		<rect x="142.76" class="st0" width="136.44" height="29.87"/>
		<g>
			<text transform="matrix(1 0 0 1 171.0564 22.8619)" class="st1 st7 st8">第2四半期</text>
		</g>
	</g>
	<rect x="96.02" y="33" class="st2" width="42.97" height="26.92"/>
	<g>
		<text transform="matrix(1 0 0 1 104.2014 54.3912)" class="st1 st7 st8">3月</text>
	</g>
	<rect x="142.76" y="33" class="st2" width="42.97" height="26.92"/>
	<g>
		<text transform="matrix(1 0 0 1 150.9358 54.3912)" class="st1 st7 st8">4月</text>
	</g>
	<rect x="189.49" y="33" class="st2" width="42.97" height="26.92"/>
	<g>
		<text transform="matrix(1 0 0 1 197.6697 54.3912)" class="st1 st7 st8">5月</text>
	</g>
	<rect x="236.23" y="33" class="st2" width="42.97" height="26.92"/>
	<g>
		<text transform="matrix(1 0 0 1 244.4041 54.3912)" class="st1 st7 st8">6月</text>
	</g>
	<line class="st4" x1="69.24" y1="69.62" x2="69.24" y2="89.9"/>
	<circle class="st4" cx="69.24" cy="68.95" r="3.33"/>
	<g>
		<text transform="matrix(1 0 0 1 180.2344 107.6151)"><tspan x="0" y="0" class="st3 st5 st6">第1四半期</tspan><tspan x="0" y="18" class="st3 st5 st6">決算発表</tspan></text>
	</g>
	<line class="st4" x1="210.23" y1="69.62" x2="210.23" y2="89.9"/>
	<circle class="st4" cx="210.23" cy="68.95" r="3.33"/>
	<g>
		<text transform="matrix(1 0 0 1 72.491 132.8882)" class="st3 st5 st6">定時株主総会</text>
	</g>
	<line class="st4" x1="118.45" y1="69.62" x2="118.45" y2="115.17"/>
	<circle class="st4" cx="118.45" cy="68.95" r="3.33"/>
</g>
</svg>
